<?xml version="1.0" encoding="UTF-8"?>
<svg version="1.1" viewBox="0 0 1600 424" width="1280" height="1280" xmlns="http://www.w3.org/2000/svg">
<path transform="translate(0)" d="m0 0h1600v424h-1600v-424z" fill="#000102"/>
<path transform="translate(871 185)" d="m0 0c0.66-0.01 1.31-0.01 1.99-0.02 2.18-0.02 4.36-0.02 6.53-0.03 1.52 0 3.03-0.01 4.54-0.02 3.17-0.01 6.35-0.01 9.52-0.01 4.06 0 8.13-0.03 12.2-0.06 3.13-0.02 6.25-0.03 9.37-0.03 1.5 0 3-0.01 4.5-0.02 2.1-0.02 4.19-0.02 6.29-0.01h3.62c3.64 0.59 4.84 1.58 7.04 4.49v2c0.99 0.33 1.98 0.66 3 1 0.5 2.97 0.5 2.97 1 6 1.14 0.07 1.14 0.07 2.31 0.15 0.99 0.07 1.98 0.15 3.01 0.23 0.98 0.07 1.97 0.13 2.99 0.21 2.69 0.41 2.69 0.41 5.69 2.41-0.07 0.62-0.14 1.24-0.21 1.88-0.75 7.08-0.84 14-0.72 21.1-0.07 2.99-0.07 2.99-1.07 3.99-1.97 0.1-3.95 0.13-5.93 0.13h-3.28c-2.79-0.13-2.79-0.13-4.79-1.13v-26c-3.37-1.68-7.17-1.14-10.9-1.12h-2.66c-9.51 0.06-19 0.56-28.5 1.12l-0.06 9.69c-0.01 1.37-0.01 1.37-0.02 2.76-0.01 0.89-0.01 1.77-0.01 2.69-0.01 0.81-0.01 1.62-0.02 2.46 0.12 2.55 0.55 4.91 1.11 7.4 1.07 0.06 2.13 0.11 3.23 0.17l11.9 0.63c1.71 0.09 3.42 0.18 5.14 0.27 2.46 0.13 4.93 0.26 7.39 0.4 1.14 0.05 1.14 0.05 2.31 0.11 3.82 0.21 7.28 0.67 11 1.42 0.5 5.45 0.5 5.45 1 11l12 1v2h2v27c-11 1-11 1-15-1 0.01-1.11 0.01-1.11 0.02-2.25 0.02-3.35 0.03-6.71 0.05-10.1 0.01-1.75 0.01-1.75 0.02-3.54 0.01-1.68 0.01-1.68 0.01-3.39 0.01-1.55 0.01-1.55 0.02-3.12 0-2.75 0-2.75-1.12-5.64l-39 1c-1.78 6.09-1.78 6.09-2.41 12.1-0.06 1.32-0.06 1.32-0.12 2.67-0.03 0.89-0.06 1.79-0.09 2.71-0.04 0.92-0.08 1.84-0.12 2.79-0.09 2.26-0.18 4.51-0.26 6.77 1.27 0.02 2.53 0.04 3.83 0.06 4.67 0.08 9.34 0.17 14 0.26 2.02 0.04 4.05 0.07 6.07 0.1 2.9 0.05 5.81 0.11 8.71 0.17 0.91 0.01 1.82 0.02 2.75 0.03 0.84 0.02 1.69 0.04 2.55 0.06 0.74 0.02 1.49 0.03 2.25 0.04 1.83 0.28 1.83 0.28 3.83 2.28-0.02 2.82-0.02 2.82-0.37 6.13-0.11 1.09-0.22 2.19-0.34 3.32-0.09 0.84-0.19 1.68-0.29 2.55-3.43 1.14-6.09 1.14-9.71 1.16-0.68 0.01-1.36 0.01-2.06 0.02-2.24 0.01-4.48 0.02-6.73 0.02-1.55 0.01-3.11 0.02-4.67 0.02-3.26 0.01-6.53 0.02-9.79 0.02-4.19 0.01-8.38 0.03-12.6 0.06-3.22 0.02-6.44 0.02-9.66 0.02-1.54 0.01-3.08 0.02-4.63 0.03-2.15 0.02-4.31 0.01-6.47 0.01-1.22 0-2.45 0-3.72 0.01-3-0.37-3-0.37-4.66-1.65-2.38-3.07-1.74-7.01-1.71-10.8 0-0.92-0.01-1.85-0.01-2.8-0.01-3.06 0.01-6.11 0.02-9.17v-6.37c0-4.44 0.01-8.89 0.03-13.3 0.02-5.71 0.02-11.4 0.01-17.1 0-4.38 0.01-8.76 0.02-13.1v-6.32c0-2.93 0.01-5.87 0.03-8.81 0-0.88-0.01-1.75-0.01-2.66 0.07-7.5 1.37-8.48 8.69-8.53z" fill="#8B70CF"/>
<path transform="translate(995 199)" d="m0 0c0.84 0.01 1.68 0.01 2.54 0.02h2.61c1.82 0.01 3.64 0.01 5.46 0.03 2.8 0.01 5.59 0.02 8.39 0.02 1.76 0 3.53 0.01 5.29 0.01 0.85 0.01 1.69 0.01 2.55 0.01 5.9 0.05 5.9 0.05 7.01 1.16 0.33 3.1 0.52 6.2 0.72 9.31-0.01 2.61-0.01 2.61 1.28 3.69 2.56 0.03 5.1-0.07 7.66-0.16 2.34 0.16 2.34 0.16 4.34 2.16 0.28 2.86 0.28 2.86 0.32 6.56 0.01 0.68 0.02 1.35 0.03 2.04 0.03 2.23 0.05 4.46 0.07 6.69 0.02 1.55 0.04 3.09 0.06 4.63 0.05 4.07 0.09 8.14 0.12 12.2 0.04 4.14 0.09 8.29 0.15 12.4 0.09 8.15 0.18 16.3 0.25 24.4-2.31 0.03-4.62 0.05-6.93 0.06-1.29 0.02-2.58 0.03-3.91 0.04-3.16-0.1-3.16-0.1-4.16-1.1-0.16-1.92-0.25-3.85-0.31-5.78-0.05-1.17-0.09-2.34-0.13-3.55-0.04-1.23-0.08-2.46-0.12-3.73-0.04-1.24-0.09-2.47-0.13-3.74-0.11-3.07-0.21-6.13-0.31-9.2-4.14-0.03-8.29-0.04-12.4-0.06-1.19-0.01-2.37-0.02-3.59-0.03-1.13 0-2.25 0-3.41-0.01-1.04 0-2.08-0.01-3.16-0.01-2.36-0.16-2.36-0.16-3.41 1.11-0.16 1.93-0.25 3.86-0.31 5.79-0.05 1.17-0.09 2.34-0.13 3.54-0.04 1.23-0.08 2.47-0.12 3.73-0.04 1.24-0.09 2.48-0.13 3.75-0.11 3.06-0.21 6.13-0.31 9.19-3.97 0.03-7.94 0.05-11.9 0.06-1.35 0-2.7 0.01-4.05 0.02-1.94 0.01-3.88 0.01-5.81 0.02-1.76 0.01-1.76 0.01-3.54 0.02-2.69-0.12-2.69-0.12-3.69-1.12-0.1-2.03-0.14-4.07-0.14-6.11-0.01-1.3-0.02-2.61-0.02-3.96 0-1.44 0-2.88-0.01-4.32 0-1.47 0-2.94-0.01-4.41v-9.25c0-3.95-0.02-7.9-0.03-11.9-0.01-3.03-0.02-6.07-0.02-9.1 0-1.46 0-2.92-0.01-4.37-0.01-2.04 0-4.08 0-6.12v-3.52c0.24-2.98 0.24-2.98 2.24-6.98h12c0.13-1.94 0.25-3.88 0.38-5.87 0.45-7.08 1.51-8.35 8.77-8.38z" fill="#6892C4"/>
<path transform="translate(801,174)" d="m0 0 2 7 4-1c0.41 0.97 0.83 1.94 1.25 2.94 1.37 3.2 1.37 3.2 3.86 3.75 0.62 0.1 1.25 0.21 1.89 0.31 2.6 9.23 2.19 18.5 2 28-0.97 0.29-1.94 0.57-2.95 0.87-1 0.37-2.01 0.74-3.05 1.13-0.97 2.03-0.97 2.03-1 4 0.8 0.31 1.61 0.62 2.44 0.94 2.56 1.06 2.56 1.06 3.56 2.06 0.12 3 0.12 3 0 6-1 1-1 1-3.56 1.06-0.81-0.02-1.61-0.04-2.44-0.06v5c3.07 1.53 6.3 1.39 9.69 1.62 2.31 0.38 2.31 0.38 4.31 2.38v4c-3.47 0.99-3.47 0.99-7 2l-1 5c-6.66 0.19-13.3 0.37-20 0.54-2.27 0.06-4.53 0.12-6.8 0.18-3.25 0.1-6.5 0.18-9.75 0.26-1.02 0.03-2.04 0.06-3.09 0.09-0.94 0.02-1.88 0.04-2.85 0.07-1.24 0.03-1.24 0.03-2.52 0.06-2.02-0.2-2.02-0.2-4.02-2.2-0.71-1.65-1.38-3.32-2-5-0.7-0.03-1.4-0.05-2.12-0.08-1.36-0.08-1.36-0.08-2.76-0.17-0.9-0.05-1.8-0.09-2.74-0.14-2.38-0.61-2.38-0.61-3.7-2.66-0.22-0.64-0.45-1.29-0.68-1.95l2-3 5 2v-21c-1.98-0.66-3.96-1.32-6-2-0.68-1.66-1.35-3.33-2-5-1.99-1.02-3.99-2.02-6-3-0.88-2.19-0.88-2.19-1-4 4.62-3 4.62-3 8-3-0.37-4.1-0.84-8.05-2-12-2.91-2.38-2.91-2.38-6-3l1-5c1.98-0.33 3.96-0.66 6-1l2-6c16-1.41 32-0.7 48 0z" fill="#27E1B5"/>
<path transform="translate(1216,199)" d="m0 0c2.96-0.37 2.96-0.37 6.8-0.37 0.7-0.01 1.4-0.01 2.12-0.01 2.32-0.01 4.64 0 6.96 0.02h4.81c3.37 0 6.74 0.01 10.1 0.02 4.33 0.03 8.65 0.03 13 0.02 3.31 0 6.63 0 9.95 0.01 1.6 0.01 3.19 0.01 4.79 0.01 2.22 0 4.45 0.01 6.68 0.03 1.26 0 2.53 0 3.84 0.01 2.96 0.26 2.96 0.26 4.96 2.26 0.2 2.82 0.2 2.82 0.12 6.12-0.01 1.1-0.03 2.2-0.05 3.33-0.02 0.84-0.05 1.68-0.07 2.55-1.24 0.03-2.47 0.05-3.75 0.08-4.57 0.09-9.14 0.19-13.7 0.29-1.98 0.05-3.97 0.09-5.95 0.13-2.84 0.05-5.68 0.12-8.52 0.18-1.34 0.03-1.34 0.03-2.71 0.05-4-0.29-4-0.29-7.36 1.27-0.07 1.85-0.08 3.71-0.06 5.56 0.01 1.01 0.02 2.03 0.02 3.07 0.02 0.78 0.03 1.56 0.04 2.37 0.67 0.02 1.34 0.04 2.03 0.06 3.05 0.1 6.11 0.21 9.16 0.32 1.58 0.04 1.58 0.04 3.19 0.09 1.03 0.04 2.05 0.08 3.1 0.12 0.94 0.03 1.88 0.06 2.84 0.09 2.85 0.34 5.08 1.14 7.68 2.32 0.22 1.79 0.43 3.58 0.62 5.38 0.12 0.99 0.24 1.99 0.36 3.02 0.01 1.29 0.01 1.29 0.02 2.6-2 2-2 2-4.6 2.21-1.07-0.02-2.14-0.03-3.25-0.05-1.74-0.02-1.74-0.02-3.52-0.03-1.22-0.02-2.44-0.05-3.69-0.07-2.41-0.03-4.82-0.06-7.23-0.09-1.07-0.02-2.14-0.03-3.24-0.05-2.41-0.2-2.41-0.2-3.47 1.08-0.09 1.93-0.11 3.86-0.1 5.79 0 1.05 0.01 2.1 0.01 3.19 0.01 1.35 0.02 2.69 0.03 4.08 0.02 4.27 0.04 8.54 0.06 12.9 20.3 0.5 20.3 0.5 41 1 2.09 4.18 1 9.32 1 14h-75c-0.87-4.33-1.15-8.22-1.15-12.6 0-0.75 0-1.49-0.01-2.26 0-2.46-0.01-4.92-0.01-7.38 0-1.71 0-3.42-0.01-5.13 0-3.59-0.01-7.17-0.01-10.8 0-4.59-0.01-9.19-0.03-13.8-0.01-3.54-0.01-7.07-0.01-10.6 0-1.7 0-3.39-0.01-5.09-0.01-2.36-0.01-4.73 0-7.09-0.01-0.7-0.01-1.4-0.02-2.13 0.02-3.63 0.18-5.08 2.26-8.2z" fill="#4BBBB4"/>
<path transform="translate(435 194)" d="m0 0c0.65-0 1.3-0.01 1.97-0.01 2.15-0.01 4.29 0 6.43 0h4.48c3.12-0.01 6.24 0 9.36 0.01 4.01 0.01 8.02 0 12-0.01 3.08-0.01 6.16 0 9.24 0h4.43c2.06-0.01 4.12 0 6.18 0.01h3.56c2.76 0.26 2.76 0.26 4.76 2.26 1.31 4.19 0.75 7.72 0 12-3.93 1.3-7.86 1.07-11.9 1-5.4-0.06-10.7 0.06-16.1 0.56-5.2 0.47-9.85 0.23-15-0.56-0.03 1.98-0.05 3.96-0.07 5.94-0.01 1.1-0.02 2.2-0.03 3.34-0.22 2.63-0.22 2.63 1.1 3.72 1.81 0.12 3.64 0.18 5.46 0.21 1.11 0.03 2.22 0.06 3.37 0.09 2.35 0.05 4.71 0.09 7.07 0.13 1.11 0.03 2.22 0.06 3.37 0.09 1.03 0.02 2.05 0.04 3.11 0.06 2.62 0.42 2.62 0.42 4.46 1.78 1.72 2.43 1.45 4.39 1.34 7.33-0.04 1.49-0.04 1.49-0.08 3.01-0.03 0.76-0.07 1.52-0.1 2.3-2.74 1.37-5.05 1.22-8.1 1.32-1.64 0.05-1.64 0.05-3.31 0.11-1.39 0.04-2.78 0.09-4.22 0.13-4.41 0.15-8.83 0.29-13.4 0.44l-1 27c5.59 0.85 5.59 0.85 11.1 1.1 0.72-0.01 1.43-0.01 2.17-0.01 0.75-0.01 1.5-0.02 2.27-0.03 1.18 0 1.18 0 2.38-0.01 2.49-0.01 4.98-0.03 7.47-0.05 3.3-0.03 6.6-0.05 9.9-0.06 0.76-0.01 1.52-0.02 2.3-0.03 1.81-0.01 3.62 0.04 5.43 0.09 1.88 1.88 1.39 5.04 1.56 7.56 0.08 1.2 0.17 2.4 0.25 3.63 0.06 0.93 0.12 1.85 0.19 2.81-8.62 0.18-17.2 0.34-25.8 0.49-4 0.07-8 0.15-12 0.23-3.86 0.08-7.73 0.15-11.6 0.22-1.47 0.02-2.94 0.05-4.41 0.09-2.07 0.04-4.14 0.07-6.21 0.1-1.17 0.03-2.35 0.05-3.56 0.07-3.38-0.2-3.38-0.2-10.4-2.2v-84c4.18-2.09 6.01-2.25 10.6-2.26z" fill="#AF4AE3"/>
<path transform="translate(1067 199)" d="m0 0h2.83c1.06 0 2.12-0 3.21-0.01 1.71 0.02 1.71 0.02 3.47 0.03h3.55c2.48 0 4.96 0.01 7.43 0.02 3.81 0.02 7.62 0.02 11.4 0.02 2.41 0.01 4.81 0.01 7.21 0.02h3.48c1.58 0.01 1.58 0.01 3.2 0.02 1.4 0.01 1.4 0.01 2.83 0.01 2.11 0.14 2.11 0.14 3.11 1.14 0.4 2.01 0.75 4.03 1.07 6.06 0.17 1.1 0.35 2.21 0.53 3.35 0.2 1.28 0.2 1.28 0.4 2.59 0.69 0.05 1.38 0.1 2.09 0.15 0.9 0.07 1.8 0.15 2.73 0.22 1.34 0.11 1.34 0.11 2.7 0.21 2.48 0.42 2.48 0.42 5.48 2.42 0.3 2.82 0.3 2.82 0.19 6.12-0.04 1.65-0.04 1.65-0.08 3.32-0.04 0.85-0.07 1.69-0.11 2.56-2.12 0.05-4.25 0.09-6.37 0.12-1.78 0.04-1.78 0.04-3.59 0.07-3.04-0.19-3.04-0.19-5.04-2.19-0.23-2.1-0.23-2.1-0.18-4.5 0-0.8 0.01-1.59 0.02-2.41 0.16-2.09 0.16-2.09 1.16-4.09-4.48-0.03-8.95-0.05-13.4-0.07-1.28 0-2.56-0.01-3.88-0.02-1.22 0-2.43-0.01-3.68-0.01-1.13-0.01-2.25-0.01-3.41-0.02-2.53-0.18-2.53-0.18-3.6 1.12-0.07 1.85-0.08 3.71-0.06 5.56 0.01 1.01 0.02 2.02 0.03 3.07 0.01 0.78 0.02 1.56 0.03 2.37 8.09 1.22 15.8 2.25 24 1.97 1.97 0.03 1.97 0.03 2.97 1.03 0.24 1.85 0.42 3.7 0.57 5.56 0.08 1.01 0.16 2.02 0.25 3.07 0.06 0.78 0.12 1.56 0.18 2.37 0.76 0.05 1.52 0.1 2.3 0.15 1 0.07 1.99 0.15 3.02 0.22 0.98 0.07 1.97 0.14 2.98 0.21 2.7 0.42 2.7 0.42 5.7 2.42 0.25 2.7 0.25 2.7 0.08 6.1-0.06 1.21-0.11 2.42-0.17 3.67-0.07 1.27-0.14 2.54-0.22 3.85-0.06 1.28-0.12 2.56-0.18 3.88-0.16 3.16-0.33 6.33-0.51 9.5-1.95 0.02-3.91 0.04-5.87 0.06-1.64 0.02-1.64 0.02-3.31 0.03-2.82-0.09-2.82-0.09-4.82-1.09 0.01-0.79 0.01-1.57 0.02-2.37 0.02-3.53 0.03-7.05 0.05-10.6 0.01-1.85 0.01-1.85 0.02-3.73 0.01-1.17 0.01-2.34 0.01-3.55 0.01-1.08 0.01-2.17 0.02-3.28 0.17-2.44 0.17-2.44-1.12-3.5-1.84-0.1-3.68-0.13-5.53-0.14h-3.39c-1.77 0.01-1.77 0.01-3.58 0.01-1.18 0-2.35-0.01-3.57-0.01h-3.39c-1.56 0.01-1.56 0.01-3.14 0.01-2.35-0.14-2.35-0.14-3.4 1.13-0.08 1.92-0.1 3.85-0.09 5.78 0 1.76 0 1.76 0.01 3.55 0 1.23 0.01 2.46 0.02 3.73 0.01 1.24 0.01 2.47 0.02 3.74 0.01 3.07 0.03 6.13 0.04 9.2l25 1c1.98 3.94 2.61 6.66 3 11-0.49 1.48-0.49 1.48-1 3-7.28 0.02-14.6 0.04-21.8 0.05-3.38 0-6.76 0.01-10.1 0.02-3.89 0.02-7.77 0.02-11.7 0.02-1.22 0.01-2.44 0.02-3.69 0.02h-3.4c-0.99 0-1.99 0.01-3.01 0.01-2.25-0.12-2.25-0.12-3.25-1.12-0.1-2.15-0.12-4.31-0.13-6.46v-2.04-6.74-4.7-9.87c0.01-4.19 0.01-8.38 0-12.6v-9.71-4.63c-0.03-19.6-0.03-19.6 1.13-25.3 2-2 2-2 4.25-2.25z" fill="#6793C3"/>
<path transform="translate(614 194)" d="m0 0c0.81-0 1.61-0.01 2.44-0.01 2.67-0.01 5.34 0 8.01 0h5.56c3.88-0.01 7.76 0 11.6 0.01 4.98 0.01 9.96 0 15-0.01 3.82-0.01 7.64 0 11.5 0h5.51c2.57-0.01 5.13 0 7.69 0.01 0.77-0 1.53-0.01 2.32-0.01 5.25 0.04 5.25 0.04 7.48 2.27 0.23 2.7 0.23 2.7 0.2 6.1-0.01 1.21-0.02 2.42-0.02 3.67-0.03 1.91-0.03 1.91-0.05 3.85-0.01 1.28-0.02 2.56-0.03 3.88-0.02 3.17-0.06 6.33-0.1 9.5-3.17 0.66-6.06 1.12-9.31 1.06-1.83-0.03-1.83-0.03-3.69-0.06-0.07 1.39-0.07 1.39-0.15 2.81-0.07 1.19-0.15 2.39-0.22 3.63-0.07 1.19-0.14 2.39-0.21 3.62-0.14 0.97-0.28 1.94-0.42 2.94-4.26 2.13-10.4 1.04-15 1v14c-2.91 1.45-5.6 1.02-8.81 0.94-2.37-0.04-2.37-0.04-5.19 1.06-0.03 1.44-0.04 2.87-0.06 4.31-0.01 0.8-0.02 1.6-0.04 2.43 0.01 2.43 0.01 2.43 1.1 5.26 10.8 0.73 21.4 1.12 32.2 0.87 0.85-0.01 1.7-0.02 2.57-0.03 0.75-0.02 1.5-0.04 2.27-0.05 1.98 0.21 1.98 0.21 4.98 2.21 0.43 5.16-0.02 8.22-2 13-9.9 0.02-19.8 0.04-29.7 0.05-4.6 0.01-9.2 0.01-13.8 0.02-4.44 0.02-8.88 0.02-13.3 0.02-1.69 0.01-3.38 0.01-5.07 0.01-2.38 0.01-4.75 0.01-7.13 0.01-0.69 0.01-1.38 0.01-2.1 0.01-12.8-0.02-12.8-0.02-14.9-2.12-0.12-1.81-0.17-3.63-0.19-5.44-0.01-0.99-0.02-1.98-0.04-2.99 0.23-2.57 0.23-2.57 2.23-4.57 4.35-0.28 8.65-0.09 13 0v-13c3.63-1.81 5.37-2.32 9.25-2.63 0.89-0.07 1.79-0.15 2.71-0.22 0.67-0.05 1.35-0.1 2.04-0.15-0.01-0.78-0.02-1.57-0.03-2.37-0.01-1.01-0.02-2.03-0.03-3.07-0.01-1.01-0.02-2.02-0.04-3.06 0.1-2.5 0.1-2.5 1.1-3.5 1.98-0.21 3.96-0.37 5.94-0.5 4.18-0.18 4.18-0.18 8.06-1.5-0.02-0.76-0.04-1.52-0.07-2.3-0.02-1-0.03-1.99-0.05-3.01-0.03-0.99-0.05-1.98-0.07-2.99 0.19-2.7 0.19-2.7 2.19-5.7 3.04-0.29 3.04-0.29 6.63-0.19 1.19 0.03 2.37 0.06 3.6 0.08 0.91 0.04 1.83 0.07 2.77 0.11l-1-1c-0.1-1.64-0.13-3.29-0.12-4.94-0.01-1.34-0.01-1.34-0.01-2.71 0.13-2.35 0.13-2.35 1.13-4.35-13.6-1-27.2-1.31-40.9-1.55-2.8-0.05-5.61-0.11-8.42-0.17-0.86-0.01-1.72-0.03-2.61-0.04-5.99-0.13-5.99-0.13-7.11-1.24-0.15-1.81-0.22-3.62-0.25-5.44-0.02-0.99-0.05-1.98-0.08-2.99 0.11-0.85 0.22-1.7 0.33-2.57 3.73-2.49 6.61-2.28 10.9-2.26z" fill="#A650DE"/>
<path transform="translate(1315 199)" d="m0 0c0.79-0 1.58-0 2.39-0.01 2.61 0 5.23 0 7.84 0.01 1.81-0 3.62-0.01 5.43-0.01 3.8 0 7.6 0 11.4 0.01h14.6c3.74-0.01 7.48-0.01 11.2-0 1.8-0 3.6-0 5.4-0.01 2.51 0 5.02 0 7.53 0.01 0.75-0 1.5-0 2.27-0.01 5.13 0.03 5.13 0.03 6.24 1.14 0.09 2.07 0.11 4.15 0.1 6.22 0 1.89 0 1.89-0.01 3.82-0.01 1.34-0.02 2.68-0.02 4.02-0.01 1.35-0.01 2.69-0.02 4.04-0.01 3.3-0.03 6.6-0.05 9.9-0.85-0.01-1.71-0.02-2.59-0.04-1.1 0-2.21-0.01-3.34-0.02-1.66-0.02-1.66-0.02-3.34-0.04-2.64-0.21-2.64-0.21-3.73 1.1-0.28 3.1-0.45 6.2-0.62 9.31-0.12 0.89-0.25 1.78-0.38 2.69-2.52 1.26-4.25 1.06-7.06 1-1.64-0.04-3.29-0.05-4.94 0-1.87 1.88-1.39 5.04-1.56 7.56-0.08 1.2-0.17 2.4-0.25 3.63-0.09 1.39-0.09 1.39-0.19 2.81-0.85 0.05-1.71 0.1-2.59 0.15-1.1 0.07-2.21 0.15-3.34 0.22-1.11 0.07-2.21 0.14-3.34 0.22-1.35 0.2-1.35 0.2-2.73 0.41-1.26 2.52-1.1 4.31-1.06 7.12 0.01 0.91 0.02 1.82 0.03 2.76 0.01 0.7 0.02 1.4 0.03 2.12 4.18 1.02 8.06 1.09 12.4 1.03 1.42-0.02 2.85-0.03 4.27-0.04 2.23-0.03 4.46-0.05 6.68-0.09 2.17-0.03 4.33-0.04 6.49-0.06 1.93-0.03 1.93-0.03 3.9-0.05 3.31 0.21 3.31 0.21 7.31 2.21v12c-10.8 0.02-21.6 0.04-32.4 0.05-5.02 0.01-10 0.01-15 0.02-4.84 0.02-9.67 0.02-14.5 0.02-1.85 0.01-3.7 0.01-5.55 0.02h-7.74c-0.78 0.01-1.55 0.01-2.35 0.01-5.27-0.01-5.27-0.01-6.39-1.12-0.07-2.02-0.08-4.04-0.06-6.06 0.01-1.11 0.02-2.21 0.03-3.35 0.01-0.86 0.02-1.71 0.03-2.59 2.77-1.38 5.05-1.1 8.13-1.06 1.09 0.01 2.19 0.01 3.32 0.02 0.84 0.02 1.68 0.03 2.55 0.04-0.02-0.84-0.04-1.69-0.07-2.56-0.02-1.09-0.03-2.19-0.05-3.32-0.02-1.09-0.05-2.18-0.07-3.3 0.19-2.82 0.19-2.82 2.19-4.82 4.02-0.28 7.98-0.09 12 0v-13c5.63-2.25 5.63-2.25 9.82-1.63 0.79 0.12 1.58 0.23 2.39 0.34 0.59 0.1 1.18 0.19 1.79 0.29-0.01-0.76-0.02-1.52-0.03-2.3-0.01-1-0.02-1.99-0.03-3.01-0.01-0.99-0.02-1.98-0.03-2.99 0.09-2.7 0.09-2.7 1.09-5.7 4.39-0.7 8.56-1.11 13-1 0.03-1.79 0.05-3.58 0.07-5.38 0.01-0.99 0.02-1.99 0.03-3.02 0.08-2.58 0.08-2.58-1.1-4.6-0.67-0.01-1.34-0.02-2.03-0.03-6.98-0.08-14-0.18-20.9-0.29-2.6-0.04-5.21-0.07-7.81-0.1-3.74-0.05-7.48-0.11-11.2-0.17-1.17-0.01-2.34-0.02-3.55-0.03-1.08-0.02-2.16-0.04-3.27-0.06-0.96-0.02-1.91-0.03-2.9-0.04-2.29-0.28-2.29-0.28-4.29-2.28-0.04-2.57-0.04-2.57 0.25-5.56 0.09-0.99 0.18-1.99 0.27-3.01 0.16-0.8 0.32-1.6 0.48-2.43 3.07-1.53 6.28-1.14 9.65-1.13z" fill="#27E1B5"/>
<path transform="translate(252 180)" d="m0 0c1.02-0.01 2.05-0.01 3.11-0.02 1.11 0 2.22 0.01 3.36 0.01h3.46c2.41 0 4.83 0 7.24 0.01 3.7 0.01 7.39-0 11.1-0.01h7.04c1.65 0 1.65 0 3.35-0.01 1.03 0.01 2.06 0.01 3.13 0.02h2.75c2.56 0.26 2.56 0.26 7.56 2.26v13l-2 1v-2l-42 1c0.49 3.96 0.49 3.96 1 8 0.01 2.24-0.03 4.48-0.12 6.73-0.05 1.26-0.1 2.53-0.15 3.83-0.03 0.66-0.05 1.33-0.08 2.01-0.69 16.5-0.77 32.9-0.65 49.4 3.1 1.81 5.3 2.23 8.88 2.16 0.92-0.01 1.84-0.02 2.79-0.03 0.95-0.03 1.91-0.05 2.89-0.07 1.9-0.03 3.8-0.06 5.69-0.09 0.84-0.02 1.68-0.03 2.54-0.05 2.21 0.08 2.21 0.08 5.21 1.08 0.95 2.84 1.13 4.67 1.12 7.62 0.01 1.2 0.01 1.2 0.01 2.42-0.13 1.96-0.13 1.96-1.13 2.96-2.26 0.17-4.52 0.27-6.78 0.35-1.03 0.04-1.03 0.04-2.09 0.07-1.46 0.05-2.92 0.09-4.38 0.14-2.21 0.06-4.42 0.14-6.63 0.22-7.12 0.23-14.1 0.39-21.1-0.78-2.04-2.04-1.5-6-1.72-8.75-0.04-2.22-0.04-2.22-1.28-3.25-3.53-0.25-7.05-0.39-10.6-0.52-3.66-0.51-4.9-0.86-7.42-3.48-0.5-2.97-0.5-2.97-0.49-6.64 0-0.67 0-1.34-0.01-2.04-0.01-2.21 0.02-4.42 0.04-6.64v-4.61c0-3.22 0.02-6.45 0.05-9.67 0.03-4.13 0.04-8.27 0.04-12.4 0-3.18 0.01-6.35 0.02-9.53 0.01-1.52 0.01-3.05 0.02-4.57 0-2.13 0.02-4.26 0.04-6.39 0.01-1.21 0.01-2.42 0.02-3.67 0.27-2.84 0.27-2.84 2.27-4.84 2.91-0.15 5.72-0.19 8.62-0.13 0.81 0.01 1.61 0.02 2.43 0.03 1.99 0.02 3.97 0.06 5.95 0.1-0.02-0.84-0.05-1.69-0.07-2.56-0.02-1.09-0.04-2.19-0.06-3.32-0.02-1.09-0.04-2.18-0.07-3.3 0.35-5.01 2.71-5.07 7.12-5.08z" fill="#AF4AE2"/>
<path transform="translate(515 194)" d="m0 0c1.1 0.01 1.1 0.01 2.23 0.01 0.81 0 1.63 0.01 2.46 0.01 0.86 0.01 1.71 0.02 2.59 0.04h2.52c5.2 0.03 10.2 0.44 15.4 1.18 0.84 9.03 1.12 17.9 1 27 1.24 0.08 1.24 0.08 2.52 0.15 1.63 0.11 1.63 0.11 3.29 0.23 1.08 0.07 2.16 0.14 3.27 0.21 2.92 0.41 2.92 0.41 5.92 2.41 0.34 2.71 0.34 2.71 0.29 6.1-0.02 1.82-0.02 1.82-0.03 3.68-0.03 1.27-0.05 2.54-0.08 3.85-0.02 1.92-0.02 1.92-0.04 3.87-0.03 3.17-0.09 6.34-0.14 9.5l12 1c1.97 4.93 2.18 8.78 2 14-4.06 0.99-7.83 1.23-12 1l-3-2c-0.73-3.99-0.79-7.94-1-12l-12-1c-0.69 8.18-1.1 16.2-0.94 24.5-0.06 2.54-0.06 2.54-1.06 4.54-4.28 0.06-8.55 0.1-12.8 0.13-1.21 0.01-2.43 0.03-3.68 0.05-1.16 0.01-2.33 0.01-3.52 0.02-1.61 0.01-1.61 0.01-3.26 0.03-2.72-0.23-2.72-0.23-5.72-2.23-0.3-2.71-0.4-5.19-0.38-7.9 0-0.82 0-1.64-0.01-2.48-0.01-2.7 0.01-5.41 0.02-8.12v-5.62c0-3.94 0.01-7.87 0.03-11.8 0.02-5.05 0.02-10.1 0.02-15.2-0.01-3.87 0-7.75 0.01-11.6v-5.59c0-2.6 0.01-5.2 0.03-7.8 0-0.78 0-1.55-0.01-2.35 0.08-7.27 0.08-7.27 4.13-7.8z" fill="#AF4AE3"/>
<path transform="translate(1152 199)" d="m0 0h2.83c1.06 0 2.12-0 3.21-0.01 1.71 0.02 1.71 0.02 3.47 0.03h3.55c2.48 0 4.96 0.01 7.43 0.02 3.81 0.02 7.62 0.02 11.4 0.02 2.41 0.01 4.81 0.01 7.21 0.02h3.48c1.58 0.01 1.58 0.01 3.2 0.02 1.4 0.01 1.4 0.01 2.83 0.01 2.11 0.14 2.11 0.14 3.11 1.14 0.47 4.32 0.71 8.66 1 13-6.43 0.49-6.43 0.49-13 1-0.79 6.98-1.13 13.8-1.09 20.8v2.98c0.01 3.11 0.02 6.22 0.03 9.32 0.01 2.12 0.01 4.25 0.02 6.37 0.01 5.17 0.02 10.3 0.04 15.5 1.27 0.07 1.27 0.07 2.56 0.15 1.09 0.07 2.19 0.15 3.32 0.22 1.09 0.07 2.18 0.14 3.3 0.21 2.82 0.42 2.82 0.42 4.82 2.42 0.2 2.82 0.2 2.82 0.13 6.12-0.02 1.1-0.04 2.19-0.06 3.32-0.02 0.85-0.04 1.69-0.07 2.56-7.79 0.19-15.6 0.37-23.4 0.53-2.66 0.06-5.31 0.13-7.97 0.19-3.8 0.09-7.61 0.18-11.4 0.25-1.19 0.04-2.38 0.07-3.61 0.1-1.1 0.02-2.21 0.04-3.34 0.06-1.46 0.04-1.46 0.04-2.95 0.07-2.33-0.2-2.33-0.2-4.33-2.2-0.26-2.53-0.26-2.53-0.25-5.5 0-0.98-0.01-1.96-0.01-2.97 0.26-2.53 0.26-2.53 2.26-4.53h11v-56h-11c-2-2-2-2-2.26-4.53 0-0.98 0.01-1.96 0.01-2.97 0-0.98-0.01-1.96-0.01-2.97 0.35-3.32 1.13-4.41 4.51-4.78z" fill="#4CBAB4"/>
<path transform="translate(334,194)" d="m0 0c2.52-0.34 2.52-0.34 5.66-0.29 1.13 0.01 2.25 0.02 3.4 0.03 1.18 0.02 2.35 0.05 3.56 0.07 1.78 0.02 1.78 0.02 3.59 0.04 2.93 0.04 5.86 0.09 8.79 0.15v2h3c0 1.27 0 1.27-0.01 2.57-0.02 7.97-0.03 16-0.04 23.9-0.01 4.11-0.01 8.21-0.03 12.3-0.01 3.95-0.01 7.91-0.01 11.9-0.01 1.51-0.01 3.02-0.02 4.54v6.33c-0.01 1.81-0.01 1.81-0.01 3.65-0.07 2.77-0.07 2.77 1.12 4.82 12.9 0.5 12.9 0.5 26 1 1.85 3.69 2.26 4.83 2.19 8.69-0.01 0.79-0.02 1.57-0.02 2.38-0.17 1.93-0.17 1.93-1.17 2.93-2.35 0.17-4.68 0.28-7.04 0.35-1.06 0.04-1.06 0.04-2.15 0.07-1.52 0.05-3.03 0.09-4.55 0.14-2.29 0.06-4.58 0.14-6.88 0.22-1.47 0.05-2.94 0.09-4.42 0.13-0.67 0.03-1.35 0.05-2.05 0.08-4.77 0.12-9.22-0.18-13.9-0.99-2.5-2.5-2.36-3.67-2.62-7.12-0.08-0.92-0.15-1.83-0.23-2.76-0.05-0.7-0.1-1.4-0.15-2.12-0.84-0.04-1.69-0.07-2.55-0.11-1.1-0.07-2.2-0.13-3.33-0.2-1.09-0.06-2.18-0.12-3.3-0.18-0.93-0.17-1.86-0.34-2.82-0.51-2.4-3.61-2.25-5.25-2.26-9.54 0-0.65-0.01-1.31-0.01-1.99-0.01-2.18 0-4.36 0-6.53v-4.54c0-3.17 0-6.34 0.01-9.51 0.01-4.07 0-8.14-0.01-12.2-0.01-3.13 0-6.25 0-9.37v-4.5c-0.01-2.1 0-4.19 0.01-6.28 0-1.2 0-2.39 0.01-3.62 0.25-2.92 0.25-2.92 2.25-5.92z" fill="#AF4AE2"/>
<path transform="translate(867 185)" d="m0 0c0.91 0.01 1.82 0.02 2.76 0.03 0.99 0.01 1.97 0.01 2.99 0.02 1.55 0.03 1.55 0.03 3.13 0.05 1.04 0.01 2.08 0.02 3.15 0.03 2.58 0.02 5.15 0.06 7.72 0.1v1c2.48 0.49 2.48 0.49 5 1-3.85 2.56-6.14 2.05-10.6 1.77-2.42 0.02-2.42 0.02-4.13 1.54-1.45 1.78-1.45 1.78-2.25 4.69-0.99-0.33-1.98-0.66-3-1v-2l-4-2c-1.48 2.97-1.12 5.66-1.13 8.98v2.18c-0.01 2.39 0 4.77 0 7.16v4.98 10.4c0.01 4.45 0.01 8.91 0 13.4v10.3 4.92c-0.01 2.31 0 4.61 0 6.92 0 1.3 0.01 2.61 0.01 3.96 0.13 4 0.57 7.83 1.12 11.8 0.99-0.5 0.99-0.5 2-1 0.74-3.2 0.74-3.2 1.19-6.94 0.18-1.27 0.36-2.53 0.54-3.84 0.55-3.11 0.55-3.11-0.73-5.22-1.08-4.42-1.13-6.96 1-11 0.96-1.37 1.95-2.71 3-4l5 1-1 3c0.19 0.66 0.37 1.32 0.57 2 0.14 0.66 0.28 1.32 0.43 2l-2 3 4 3c0.44-0.5 0.87-0.99 1.32-1.5 1.68-1.5 1.68-1.5 4.68-1.5 0.13-1.12 0.25-2.23 0.38-3.38 0.62-3.62 0.62-3.62 2.62-5.62 2.63-0.13 2.63-0.13 5 0 0.2 1.75 0.39 3.5 0.57 5.25 0.15 1.46 0.15 1.46 0.31 2.95 0.17 5.31-0.36 10.5-0.88 15.8 1.27 0.02 2.53 0.04 3.83 0.06 4.67 0.07 9.34 0.16 14 0.25 2.02 0.04 4.04 0.08 6.07 0.11 2.9 0.04 5.81 0.1 8.71 0.16 0.91 0.01 1.82 0.03 2.75 0.04 0.84 0.02 1.68 0.04 2.55 0.06 0.74 0.01 1.48 0.02 2.25 0.04 1.83 0.28 1.83 0.28 3.83 2.28-0.02 2.82-0.02 2.82-0.37 6.12-0.11 1.1-0.22 2.19-0.34 3.32-0.09 0.85-0.19 1.69-0.29 2.56-3.43 1.14-6.1 1.14-9.72 1.16-0.67 0-1.35 0.01-2.05 0.01-2.24 0.02-4.48 0.02-6.73 0.03-1.55 0.01-3.11 0.01-4.67 0.02-3.27 0.01-6.53 0.01-9.8 0.02-4.18 0-8.37 0.03-12.6 0.06-3.21 0.01-6.43 0.02-9.65 0.02-1.54 0-3.08 0.01-4.63 0.02-2.15 0.02-4.31 0.02-6.47 0.01-1.23 0.01-2.45 0.01-3.72 0.01-3-0.36-3-0.36-4.66-1.64-2.38-3.07-1.74-7.02-1.71-10.8 0-0.93-0.01-1.85-0.01-2.8-0.01-3.06 0.01-6.12 0.02-9.18v-6.36c0-4.45 0.01-8.89 0.03-13.3 0.02-5.71 0.02-11.4 0.01-17.1 0-4.38 0.01-8.76 0.02-13.1v-6.32c0-2.94 0.01-5.87 0.03-8.81 0-0.88-0.01-1.76-0.01-2.66 0.07-8.02 0.07-8.02 4.53-8.47z" fill="#8B70D0"/>
<path transform="translate(395 194)" d="m0 0c1.55 0.01 1.55 0.01 3.14 0.02 1.54-0.01 1.54-0.01 3.11-0.02 3.14 0.27 3.14 0.27 9.14 2.27v71c-3.76 0.94-6.77 1.16-10.6 1.18-1.73 0.02-1.73 0.02-3.48 0.05-2.9-0.23-2.9-0.23-4.9-2.23-1.23-3.45-1.13-6.85-1.14-10.5-0.01-1.31-0.02-2.62-0.02-3.98-0.01-1.43-0.01-2.86-0.01-4.29 0-1.47 0-2.94-0.01-4.41 0-3.07-0.01-6.15 0-9.22 0-3.95-0.02-7.9-0.04-11.8-0.01-3.03-0.01-6.06-0.01-9.1 0-1.45 0-2.91-0.01-4.36-0.01-2.03-0.01-4.06 0-6.09 0-1.16-0.01-2.31-0.01-3.51 0.34-3.69 1.15-4.6 4.86-4.98z" fill="#AF46E4"/>
<path transform="translate(779,258)" d="m0 0c1.28 2.57 1.11 4.57 1.19 7.44 0.15 2.94 0.15 2.94 0.81 5.56 2.87 2.1 2.87 2.1 6 3 0.5 1.49 0.5 1.49 1 3 0.99 0.43 1.98 0.87 3 1.31 1.49 0.84 1.49 0.84 3 1.69 0.88 3.19 0.88 3.19 1 6 0.78 0.1 1.57 0.21 2.38 0.31 2.62 0.69 2.62 0.69 4.62 3.69 0.23 2.45 0.23 2.45 0.19 5.12-0.01 0.89-0.02 1.78-0.02 2.7-0.17 2.18-0.17 2.18-1.17 3.18-2.38 0.38-2.38 0.38-5 0-1.05-1.64-2.05-3.3-3-5-2.09-0.88-2.09-0.88-4-1l-2 7-20-1-3-6h-3l-2 7-13-1v-2h-2v-10c3.77-1.88 5.03-2.22 9-2v-6c3.75-1.12 3.75-1.12 6 0-0.04-0.95-0.08-1.9-0.12-2.88 0.12-3.12 0.12-3.12 2.12-5.12h4c-0.03-0.84-0.07-1.69-0.11-2.55-0.02-1.1-0.05-2.2-0.08-3.33-0.05-1.63-0.05-1.63-0.1-3.3 0.09-0.93 0.19-1.86 0.29-2.82 4.45-2.97 8.73-3 14-3z" fill="#8B70D0"/>
<path transform="translate(252 180)" d="m0 0c1.02-0.01 2.05-0.01 3.11-0.02 1.11 0 2.22 0.01 3.36 0.01h3.46c2.41 0 4.83 0 7.24 0.01 3.7 0.01 7.39-0 11.1-0.01h7.04c1.65 0 1.65 0 3.35-0.01 1.03 0.01 2.06 0.01 3.13 0.02h2.75c2.56 0.26 2.56 0.26 7.56 2.26v13l-2 1v-2c-20.8 0.49-20.8 0.49-42 1l1 8c0.01 2.22-0.03 4.44-0.12 6.66-0.07 1.88-0.07 1.88-0.15 3.8-0.03 0.66-0.05 1.32-0.08 1.99-0.53 12.5-0.75 25-0.71 37.6v2.15c0.01 3.95 0.03 7.9 0.06 11.8h-2l-1-11-2 3h-3c-0.13-3.38-0.13-3.38 0-7l2-2h1v-9 2h-3c0.01-1.28 0.02-2.55 0.03-3.87l0.03-5.01c0.01-0.84 0.02-1.68 0.03-2.55 0-0.8 0-1.61 0.01-2.44 0-0.74 0.01-1.49 0.01-2.25 0.01-1.97 0.01-1.97-1.11-3.88 0.14-1.57 0.33-3.13 0.56-4.69 0.53-4.62-0.11-7.87-1.56-12.3-0.31-5.39-0.31-5.39 1-8-1.18 0.09-1.18 0.09-2.38 0.19-0.86-0.07-1.73-0.13-2.62-0.19-2-3-2-3-1.63-5.19 0.21-0.93 0.42-1.85 0.63-2.81 0-1.4-0.02-2.79-0.06-4.19 0.09-5.7 1.81-6.06 6.98-6.07z" fill="#AF4AE5"/>
<path transform="translate(454,222)" d="m0 0c4.27 0.08 8.54 0.19 12.8 0.31 1.22 0.03 2.43 0.05 3.68 0.07 1.75 0.05 1.75 0.05 3.53 0.11 1.07 0.02 2.15 0.05 3.25 0.08 2.73 0.43 2.73 0.43 4.59 1.79 1.7 2.44 1.43 4.4 1.33 7.33-0.04 1.49-0.04 1.49-0.08 3.01-0.04 0.76-0.07 1.52-0.11 2.3-2.74 1.37-5.04 1.22-8.1 1.32-1.64 0.05-1.64 0.05-3.31 0.11-2.09 0.07-2.09 0.07-4.21 0.13-4.42 0.15-8.83 0.29-13.4 0.44l-1 27c5.6 0.85 5.6 0.85 11.1 1.1 0.72-0.01 1.44-0.01 2.18-0.01 1.12-0.01 1.12-0.01 2.26-0.03 1.18 0 1.18 0 2.39-0.01 2.49-0.01 4.98-0.03 7.47-0.05 3.29-0.03 6.59-0.05 9.89-0.06 0.76-0.01 1.52-0.02 2.31-0.03 1.81-0.01 3.61 0.04 5.42 0.09 3.33 3.33 1.64 9.3 2 14l-67 1-1-2c0.98-0.12 1.95-0.24 2.96-0.37 1.91-0.25 1.91-0.25 3.85-0.51 1.27-0.16 2.53-0.32 3.83-0.49 3.48-0.43 3.48-0.43 6.36-2.63 2.77-0.14 5.43-0.19 8.19-0.12 0.75 0 1.5 0.01 2.27 0.02 1.85 0.03 3.69 0.06 5.54 0.1 0.5-0.99 0.5-0.99 1-2-0.66 0.01-1.33 0.02-2.01 0.04-0.88 0-1.77 0.01-2.68 0.02-1.3 0.02-1.3 0.02-2.63 0.04-2.68-0.1-2.68-0.1-7.68-1.1v-12h2l-2-2c-1.06-7.54-1.64-15.5 0-23l2-1 1-2 5 3c1.35-0.97 2.69-1.97 4-3v-1h14c-0.5-1.98-0.5-1.98-1-4l-2 2c-0.56-0.32-1.12-0.63-1.7-0.96-2.45-1.11-4.38-1.43-7.05-1.66-1.2-0.12-1.2-0.12-2.42-0.23-0.61-0.05-1.21-0.1-1.83-0.15v2h-10v-5c0.99-0.33 1.98-0.66 3-1l1 1 1-2z" fill="#AF46E4"/>
<path transform="translate(780,223)" d="m0 0c1.48 0.12 2.96 0.3 4.44 0.5 4.67 0.54 8.89 0.3 13.5-0.34 2.03-0.16 2.03-0.16 4.03 0.84v4h-2v-2c-3.1 0.84-3.1 0.84-6 3-0.84 2.99-0.99 5.9-1 9 5.21 1.5 7.98-0.04 12.7-2.29 0.76-0.23 1.52-0.47 2.3-0.71l3 2c2.58 0.37 5.13 0.5 7.72 0.66 2.28 0.34 2.28 0.34 4.28 2.34v4l-7 2c-0.5 2.47-0.5 2.47-1 5-6.66 0.19-13.3 0.37-20 0.54-2.27 0.06-4.53 0.12-6.8 0.18-3.25 0.1-6.5 0.18-9.75 0.26-1.02 0.03-2.04 0.06-3.09 0.09-0.94 0.02-1.88 0.04-2.85 0.07-1.24 0.03-1.24 0.03-2.52 0.06-2.02-0.2-2.02-0.2-4.02-2.2-0.71-1.65-1.38-3.32-2-5-1.05-0.04-1.05-0.04-2.12-0.08-0.91-0.05-1.82-0.11-2.76-0.17-1.35-0.07-1.35-0.07-2.74-0.14-2.38-0.61-2.38-0.61-3.7-2.66-0.22-0.64-0.45-1.29-0.68-1.95 0.99-1.49 0.99-1.49 2-3 2.48 0.99 2.48 0.99 5 2v-9c0.99 1.49 0.99 1.49 2 3l1-7 2 1v3c1.44 1.69 1.44 1.69 3 3l1-2c0.58 0.31 1.15 0.62 1.75 0.94 2.09 0.99 4 1.58 6.25 2.06 2.34-2.54 2.99-3.66 3.12-7.19-0.04-0.93-0.08-1.85-0.12-2.81l1-1z" fill="#7CD69A"/>
<path transform="translate(334,194)" d="m0 0c2.52-0.34 2.52-0.34 5.66-0.29 1.13 0.01 2.25 0.02 3.4 0.03 1.18 0.02 2.35 0.05 3.56 0.07 1.78 0.02 1.78 0.02 3.59 0.04 2.93 0.04 5.86 0.09 8.79 0.15v2h3l-1 21h-1l-2 16-2-4c-0.03 1.6-0.05 3.21-0.06 4.81-0.01 0.9-0.03 1.79-0.04 2.71-0.01 2.61-0.01 2.61 1.1 5.48l-3 3c-0.07-1.18-0.07-1.18-0.15-2.38-0.41-5.8-1-11.1-2.85-16.6-0.38-1.31-0.76-2.62-1.12-3.94-0.29-1.01-0.58-2.02-0.88-3.06l2-1c0.47-1.9 0.47-1.9 0.62-4.06 0.13-1.3 0.25-2.6 0.38-3.94-0.99-0.33-1.98-0.66-3-1-0.45 0.82-0.91 1.65-1.38 2.5-0.53 0.82-1.07 1.65-1.62 2.5h-2c-0.89 3.49-0.89 3.49-0.5 7 0.65 2.59 0.07 4.41-0.5 7-0.04 1.67-0.05 3.33 0 5-2.97 0.5-2.97 0.5-6 1-0.19-1.62-0.38-3.25-0.56-4.88-0.11-0.9-0.21-1.8-0.32-2.74-0.12-2.38-0.12-2.38 0.88-4.38h-2v43l-1-4h-2c-0.05-8.29-0.08-16.6-0.1-24.9-0.01-3.85-0.03-7.7-0.05-11.6-0.02-3.72-0.03-7.43-0.04-11.2 0-1.41-0.01-2.83-0.02-4.25-0.02-1.98-0.02-3.97-0.02-5.95 0-1.13-0.01-2.27-0.01-3.43 0.24-2.79 0.24-2.79 2.24-5.79z" fill="#AF4AE5"/>
<path transform="translate(307 195)" d="m0 0c1.46 0.01 1.46 0.01 2.94 0.02 0.97-0.01 1.94-0.01 2.94-0.02 2.62 0.27 2.62 0.27 5.62 2.27 0.36 2.69 0.36 2.69 0.33 6.13 0 1.27-0.01 2.54-0.01 3.85-0.02 1.38-0.04 2.76-0.07 4.14l-0.03 4.2c-0.11 12.2-0.56 24.5-1.22 36.7-2.94 0.98-4.99 1.16-8.06 1.18-0.88 0.02-1.75 0.03-2.66 0.05-2.28-0.23-2.28-0.23-4.28-2.23-0.25-2.28-0.25-2.28-0.25-5.16-0.01-1.07-0.02-2.15-0.02-3.25 0-1.17 0-2.33 0.01-3.53 0-1.19-0.01-2.38-0.01-3.61 0-2.52 0-5.04 0.01-7.57 0.01-3.87 0-7.74-0.01-11.6 0-2.45 0-4.89 0.01-7.34-0.01-1.16-0.01-2.33-0.01-3.53 0-1.07 0.01-2.14 0.02-3.25v-2.88c0.38-3.36 1.42-4.19 4.75-4.54z" fill="#AD49E3"/>
<path transform="translate(785 173)" d="m0 0c1.71 0.04 1.71 0.04 3.46 0.08 1.08 0.04 2.15 0.08 3.25 0.12 0.96 0.04 1.92 0.07 2.91 0.1 2.79 0.51 3.71 1.27 5.44 3.45h-2l-1 2c-1.86 0.41-1.86 0.41-4.25 0.63-0.86 0.09-1.71 0.17-2.59 0.26-0.9 0.08-1.79 0.15-2.72 0.24-1.35 0.12-1.35 0.12-2.73 0.26-2.24 0.21-4.47 0.41-6.71 0.61v-2c-3.66 2.39-3.66 2.39-5.5 6.13-0.16 0.61-0.33 1.23-0.5 1.87-0.76 0.29-1.52 0.58-2.31 0.87-3.63 1.53-4.59 3.88-6.69 7.13-2.25 1.37-2.25 1.37-4 2l2 3c0.05 1.94 0.05 1.94-0.25 4-0.09 0.68-0.17 1.36-0.26 2.06-0.49 1.94-0.49 1.94-2.49 4.94h-1l1 5c-1.98 0.5-1.98 0.5-4 1l-3-6c-0.99-0.45-1.98-0.91-3-1.37-3-1.63-3-1.63-3.87-3.82-0.06-0.89-0.06-0.89-0.13-1.81 4.63-3 4.63-3 8-3-0.37-4.1-0.84-8.05-2-12-2.9-2.38-2.9-2.38-6-3l1-5c1.98-0.33 3.96-0.66 6-1l2-6c10.7-0.9 21.2-1.08 31.9-0.75z" fill="#4CBBB3"/>
<path transform="translate(1009 213)" d="m0 0c1.11-0 2.22-0.01 3.37-0.01 1.17 0.01 2.33 0.02 3.54 0.03 1.16-0.01 2.33-0.02 3.53-0.03 1.11 0 2.23 0.01 3.37 0.01 1.03 0 2.05 0 3.11 0.01 2.49 0.26 2.49 0.26 4.49 2.26 0.24 1.95 0.24 1.95 0.23 4.32-0.01 0.86-0.01 1.73-0.01 2.62-0.02 1.36-0.02 1.36-0.04 2.74v2.69c-0.03 4.97-0.35 9.72-1.18 14.6-4.48-0.14-8.96-0.29-13.4-0.44-1.28-0.04-2.56-0.08-3.88-0.12-1.21-0.04-2.43-0.08-3.68-0.13-1.13-0.03-2.25-0.07-3.41-0.11-2.59-0.2-2.59-0.2-3.59-1.2-0.26-4.14-0.19-8.3-0.19-12.4-0.01-1.17-0.03-2.34-0.04-3.55v-3.39c-0.01-1.03-0.01-2.06-0.02-3.12 0.5-5.09 3.48-4.76 7.84-4.77z" fill="#000102"/>
<path transform="translate(801,207)" d="m0 0c2.88-0.12 2.88-0.12 6 0l2 2c3.58 0.17 3.58 0.17 7 0v6c-0.97 0.25-1.94 0.5-2.94 0.75-1.01 0.41-2.02 0.82-3.06 1.25-0.97 2.03-0.97 2.03-1 4 0.8 0.31 1.61 0.62 2.44 0.94 2.56 1.06 2.56 1.06 3.56 2.06 0.12 3 0.12 3 0 6-1 1-1 1-3.56 1.06-0.81-0.02-1.61-0.04-2.44-0.06-0.14 0.74-0.29 1.49-0.44 2.25-2.38 4.19-6.03 5.44-10.6 6.75-4.27-0.27-4.27-0.27-6-2 0.09-1.69 0.25-3.38 0.44-5.06 0.1-0.92 0.2-1.84 0.31-2.79 0.08-0.71 0.16-1.42 0.25-2.15l7-2 1 1c0.5-1.49 0.5-1.49 1-3-1.75 0.13-1.75 0.13-3.54 0.25-1.55 0.11-3.1 0.21-4.65 0.31-0.77 0.06-1.54 0.11-2.33 0.17-4.02 0.26-7.54 0.34-11.5-0.73v7c-0.99 0.33-1.98 0.66-3 1l-1 3c-3.36-0.6-5.38-1.85-8-4l-1 3-1-3c-0.99-0.33-1.98-0.66-3-1l-1 3-2 1c-0.83-5.61-1.07-10.4 0-16l1 2h3l1-2c0.39 0.47 0.78 0.93 1.19 1.41 2.23 1.96 3.92 2.37 6.81 2.97 0.87 0.19 1.73 0.38 2.62 0.58 2.46 0.29 2.46 0.29 4.19-1.42 0.39-0.51 0.79-1.02 1.19-1.54l1 1c1.67 0.04 3.33 0.04 5 0l-1-4c6.43-0.5 6.43-0.5 13-1l2-9z" fill="#648DBC"/>
<path transform="translate(875,243)" d="m0 0 5 1-1 3c0.19 0.66 0.37 1.32 0.56 2 0.15 0.66 0.29 1.32 0.44 2-0.99 1.49-0.99 1.49-2 3l4 3c0.43-0.5 0.87-0.99 1.31-1.5 1.69-1.5 1.69-1.5 4.69-1.5 0.12-1.11 0.25-2.23 0.38-3.38 0.62-3.62 0.62-3.62 2.62-5.62h5l1 12h-2v10c-7.62 2.87-7.62 2.87-11 4l-1 5c-1.98 0.66-3.96 1.32-6 2v2c-3 0-3 0-5.25-2.06-2.31-3.88-1.71-5.59-0.75-9.94 1.07-5.11 1.07-5.11 0-10-1.08-4.42-1.13-6.96 1-11 0.96-1.36 1.95-2.71 3-4z" fill="#8C6BDE"/>
<path transform="translate(396,198)" d="m0 0c3 3.75 3 3.75 3 6 0.93-0.74 0.93-0.74 1.88-1.5 2.12-1.5 2.12-1.5 4.12-1.5v5c-2.49 1.25-3.41 0.78-6 0 0.29 0.76 0.58 1.52 0.88 2.3 0.37 0.99 0.74 1.99 1.12 3.01 0.37 0.99 0.74 1.97 1.12 2.99 0.88 2.7 0.88 2.7 0.88 5.7h2c0.07 5.78 0.13 11.6 0.16 17.4 0.02 1.97 0.04 3.94 0.07 5.91 0.03 2.82 0.05 5.65 0.06 8.48 0.02 0.88 0.03 1.76 0.05 2.67v2.49c0.01 0.72 0.01 1.44 0.02 2.18-0.47 2.49-1.4 3.36-3.36 4.92-2.19 0.69-2.19 0.69-4 1v-2h-2c0.25-2.88 0.25-2.88 1-6 2.06-1.38 2.06-1.38 4-2-0.5-1.49-0.5-1.49-1-3h-1c-0.17-1.6-0.33-3.21-0.5-4.81-0.09-0.9-0.19-1.79-0.28-2.71-0.22-2.48-0.22-2.48-0.22-5.48l-1-2h-2v6h-2c-0.05-5.3-0.09-10.6-0.11-15.9-0.01-1.8-0.02-3.6-0.04-5.4-0.03-2.6-0.04-5.19-0.05-7.79-0.01-0.8-0.02-1.6-0.03-2.43 0-4.55 0.44-8.2 2.23-12.5l1-1z" fill="#B04AE5"/>
<path transform="translate(867 185)" d="m0 0c0.91 0.01 1.82 0.02 2.76 0.03 0.99 0.01 1.97 0.01 2.99 0.02 1.55 0.03 1.55 0.03 3.13 0.05 1.04 0.01 2.08 0.02 3.15 0.03 2.58 0.02 5.15 0.06 7.72 0.1v1c2.48 0.49 2.48 0.49 5 1-3.85 2.56-6.14 2.05-10.6 1.77-2.42 0.02-2.42 0.02-4.13 1.54-1.45 1.78-1.45 1.78-2.25 4.69-0.99-0.33-1.98-0.66-3-1v-2l-4-2c-1.48 2.96-1.12 5.61-1.13 8.92v2.16c-0.01 2.36 0 4.73 0 7.1v4.95 10.4c0.01 4.42 0.01 8.83 0 13.2v10.2 4.88c-0.01 8.34 0.1 16.6 1.02 24.9 0.11 2.21 0.11 2.21-0.89 4.21 0.6-0.03 1.2-0.05 1.82-0.07 11.1-0.22 22.1 1.01 33.2 2.07v2c-5.07 0.07-10.1 0.13-15.2 0.16-1.73 0.02-3.45 0.04-5.18 0.06-2.48 0.04-4.96 0.06-7.44 0.07-1.16 0.02-1.16 0.02-2.34 0.05-5.37 0-5.37 0-7.53-1.62-2.32-3.09-1.7-7.03-1.67-10.8 0-0.93-0.01-1.85-0.01-2.8-0.01-3.06 0.01-6.12 0.02-9.18v-6.36c0-4.45 0.01-8.89 0.03-13.3 0.02-5.71 0.02-11.4 0.01-17.1 0-4.38 0.01-8.76 0.02-13.1v-6.32c0-2.94 0.01-5.87 0.03-8.81 0-0.88-0.01-1.76-0.01-2.66 0.07-8.02 0.07-8.02 4.53-8.47z" fill="#8C6DD8"/>
<path transform="translate(255,254)" d="m0 0c0.99 0.33 1.98 0.66 3 1v12c0.99-0.33 1.98-0.66 3-1 0.99 0.33 1.98 0.66 3 1 1.59 0.07 3.19 0.08 4.78 0.06 0.93-0.01 1.85-0.01 2.8-0.02 1.45-0.02 1.45-0.02 2.92-0.04 1.91-0.03 3.81-0.05 5.72-0.06 1.27-0.02 1.27-0.02 2.56-0.04 2.22 0.1 2.22 0.1 5.22 1.1 0.95 2.84 1.13 4.68 1.12 7.62 0.01 1.2 0.01 1.2 0.01 2.42-0.13 1.96-0.13 1.96-1.13 2.96-2.27 0.17-4.54 0.28-6.82 0.35-0.69 0.02-1.38 0.05-2.09 0.07-1.46 0.05-2.93 0.09-4.4 0.14-2.22 0.06-4.44 0.14-6.66 0.22-1.43 0.05-2.86 0.09-4.28 0.13-1.3 0.04-2.59 0.09-3.92 0.13-4.05-0.04-7.83-0.46-11.8-1.04v-1c0.95-0.29 1.9-0.58 2.88-0.88 3.17-0.89 3.17-0.89 5.12-3.12 0.99 0.33 1.98 0.66 3 1l-1-3c-0.66-0.17-1.32-0.33-2-0.5-0.66-0.17-1.32-0.33-2-0.5l-1-3 1-1c0.05-1.58 0.04-3.17 0-4.75-0.04-3.57 0.07-6.78 1-10.2z" fill="#AF46E4"/>
<path transform="translate(297 252)" d="m0 0c0.99 0.03 1.99 0.05 3.01 0.08 1.14 0.05 1.14 0.05 2.3 0.11 1.47 4.57 2.12 8.16 2 13 1.79 1.79 4.51 1.63 6.94 2 5.85 0.89 5.85 0.89 8.06 2v11c-3.63 1.81-4.77 2.27-8.56 2.25-0.76 0-1.53 0.01-2.32 0.01-2.12-0.26-2.12-0.26-5.12-2.26-0.51-2.82-0.51-2.82-0.69-6.13-0.06-1.09-0.13-2.19-0.19-3.32-0.04-0.84-0.08-1.68-0.12-2.55-1.01 0.05-1.01 0.05-2.04 0.1-0.9 0.03-1.79 0.06-2.71 0.09-1.32 0.05-1.32 0.05-2.67 0.1-3.13-0.36-4.42-1-6.58-3.29-0.49-2.38-0.49-2.38-0.43-5v-2.63c0.43-2.37 0.43-2.37 1.6-4.17 2.58-1.69 4.48-1.5 7.52-1.39z" fill="#AD49E3"/>
<path transform="translate(1275 199)" d="m0 0c1.29-0.01 2.58-0.03 3.9-0.04h3.59c1.04-0.01 2.09-0.01 3.16-0.02 2.47 0.25 2.47 0.25 4.47 2.25v12h-38c0.67-0.66 1.32-1.32 2-2v-3c3.58-0.91 7.16-1.74 10.8-2.57 1.17-0.26 2.34-0.53 3.54-0.81 0.89-0.21 1.79-0.41 2.7-0.62l-12-1v-1c-10.9-0.33-21.8-0.66-33-1v-1c16.3-0.61 32.6-1.11 48.9-1.19z" fill="#28E0B5"/>
<path transform="translate(362,266)" d="m0 0c13.4 0.5 13.4 0.5 27 1 1.85 3.69 2.26 4.83 2.19 8.69-0.01 0.79-0.02 1.57-0.02 2.38-0.17 1.93-0.17 1.93-1.17 2.93-2.4 0.17-4.77 0.28-7.18 0.35-0.72 0.02-1.44 0.05-2.18 0.07-1.53 0.05-3.06 0.09-4.59 0.14-2.34 0.06-4.68 0.14-7.02 0.22-1.48 0.05-2.97 0.09-4.46 0.13-0.69 0.03-1.39 0.05-2.11 0.08-3.32 0.08-6.29 0.06-9.46-0.99 2.62-2.15 4.64-3.4 8-4l1-5-4-2v-2h4v-2z" fill="#AF46E4"/>
<path transform="translate(939,192)" d="m0 0h1l1 6c0.76 0.05 1.52 0.1 2.3 0.15 0.99 0.07 1.99 0.15 3.01 0.23 1.48 0.1 1.48 0.1 2.99 0.21 2.7 0.41 2.7 0.41 5.7 2.41-0.07 0.62-0.14 1.24-0.22 1.88-0.74 7.08-0.83 14-0.72 21.1-0.06 2.99-0.06 2.99-1.06 3.99-1.98 0.1-3.96 0.13-5.94 0.12-1.62 0.01-1.62 0.01-3.27 0.01-2.79-0.13-2.79-0.13-4.79-1.13 0.01-0.77 0.01-1.54 0.02-2.34 0.02-3.49 0.03-6.98 0.04-10.5 0.01-1.22 0.02-2.43 0.03-3.68 0-1.17 0-2.33 0.01-3.53 0-1.07 0.01-2.15 0.01-3.25 0.01-2.82 0.01-2.82-1.11-5.73 0.28-2.01 0.6-4.01 1-6z" fill="#8972CF"/>
<path transform="translate(943 241)" d="m0 0c1.65 0.02 1.65 0.02 3.34 0.04 1.66 0.01 1.66 0.01 3.35 0.02 0.85 0.01 1.71 0.03 2.59 0.04v2h2v27c-11 1-11 1-15-1-0.03-4.48-0.05-8.96-0.07-13.4 0-1.28-0.01-2.56-0.02-3.88 0-1.21-0.01-2.43-0.01-3.68-0.01-1.12-0.01-2.25-0.02-3.41 0.16-3.57 0.26-3.56 3.84-3.69z" fill="#8972CE"/>
<path transform="translate(785 251)" d="m0 0c1.2-0.02 2.39-0.04 3.63-0.06 1.14-0.01 2.29-0.01 3.47-0.02 1.05-0.01 2.09-0.02 3.17-0.03 2.67 0.36 2.67 0.36 4.49 1.75 1.37 1.87 1.87 3.32 2.18 5.61-1.63 1.62-3.58 1.32-5.82 1.5-3.17 0.26-6.12 0.64-9.18 1.5 0.02 0.61 0.04 1.23 0.07 1.86 0.02 1.22 0.02 1.22 0.05 2.45 0.03 0.8 0.05 1.6 0.07 2.43-0.19 2.26-0.19 2.26-2.19 5.26l-5-2-1-13c-1.05 0.35-2.11 0.7-3.19 1.06-3.61 0.89-5.34 0.99-8.81-0.06v-4l2-1-1-2c5.53-1.66 11.3-1.23 17.1-1.25z" fill="#0C090C"/>
<path transform="translate(814,188)" d="m0 0h2l1 2c1.21-0.28 1.21-0.28 2.44-0.56 1.27-0.22 1.27-0.22 2.56-0.44 1 1 1 1 1.11 4.33 0 1.47 0 2.95-0.01 4.42 0 0.78-0.01 1.55-0.01 2.35 0 2.49-0.01 4.98-0.03 7.46 0 1.68-0.01 3.37-0.01 5.05-0.01 4.13-0.03 8.26-0.05 12.4h-3v-3c-0.77 2.98-1.41 5.98-2 9h-2c-0.23-1.09-0.45-2.19-0.69-3.31-0.97-3.81-0.97-3.81-3.93-5.63-1.18-0.52-1.18-0.52-2.38-1.06 0.88-4.88 0.88-4.88 2-6h5l-2-27z" fill="#0C090C"/>
<path transform="translate(424,202)" d="m0 0h3c0.05 1.25 0.1 2.51 0.15 3.8 0.07 1.65 0.15 3.3 0.23 4.95 0.03 0.82 0.06 1.65 0.09 2.5 0.04 0.8 0.08 1.6 0.12 2.42 0.03 0.74 0.06 1.47 0.09 2.22 0.36 2.36 1.22 4.01 2.32 6.11 0.16 2.38 0.16 2.38 0.06 5-0.08 3.92 0.07 7.67 0.5 11.6 0.78 8.16 0.03 16.3-0.56 24.4l-2-1-1 17c-0.99-0.33-1.98-0.66-3-1v-78z" fill="#AD48E3"/>
<path transform="translate(786,217)" d="m0 0h6v5h2l-1 3c-4.52 0.08-8.59 0.1-13-1v7c-0.99 0.33-1.98 0.66-3 1l-1 3c-3.36-0.6-5.38-1.85-8-4l-1 3-1-3c-0.99-0.33-1.98-0.66-3-1l-1 3-2 1c-0.83-5.61-1.07-10.4 0-16l1 2h3l1-2c0.39 0.47 0.78 0.93 1.19 1.41 2.23 1.96 3.92 2.37 6.81 2.97 0.87 0.19 1.73 0.38 2.62 0.58 2.46 0.29 2.46 0.29 4.19-1.42 0.39-0.51 0.79-1.02 1.19-1.54l1 1c1.67 0.04 3.33 0.04 5 0l-1-4z" fill="#50C1B0"/>
<path transform="translate(397 194)" d="m0 0c0.89-0.02 1.77-0.03 2.69-0.05 1.14 0.18 1.14 0.18 2.31 0.36 2 3 2 3 2 6-1.38 2.19-1.38 2.19-3 4h-2c-1.62-2.5-1.62-2.5-3-5-2.04 5.07-2.25 9.34-2.16 14.7 0.01 0.83 0.01 1.67 0.02 2.53 0.01 2.67 0.04 5.34 0.08 8.01 0.03 3.49 0.06 6.97 0.09 10.5 0 0.85 0.01 1.7 0.01 2.58 0.02 8.59-0.45 17.1-1.04 25.7-0.99-0.33-1.98-0.66-3-1-0.05-8.57-0.08-17.1-0.1-25.7-0.01-3.98-0.03-7.96-0.05-11.9-0.02-3.84-0.03-7.68-0.04-11.5 0-1.47-0.01-2.94-0.02-4.4-0.02-2.05-0.02-4.1-0.02-6.15 0-1.17-0.01-2.34-0.01-3.54 0.43-4.95 2.86-5.04 7.24-5.06z" fill="#B046E5"/>
<path transform="translate(577 267)" d="m0 0c0.74 0.01 1.47 0.02 2.23 0.02 1.11-0.01 1.11-0.01 2.24-0.02 5.51 0.02 5.51 0.02 7.76 2.27 0.42 2.82 0.42 2.82 0.63 6.13 0.07 1.09 0.15 2.19 0.23 3.32 0.07 1.26 0.07 1.26 0.14 2.55-3.68 1.16-7.21 1.17-11.1 1.19-1.84 0.02-1.84 0.02-3.72 0.04-3.22-0.23-3.22-0.23-6.22-2.23-0.36-2.53-0.36-2.53-0.31-5.5 0.01-0.98 0.01-1.96 0.01-2.97 0.61-5.12 3.57-4.78 8.07-4.8z" fill="#AE47E4"/>
<path transform="translate(575 194)" d="m0 0c1.48 0.01 2.95 0.04 4.43 0.07 0.75 0.01 1.51 0.02 2.28 0.03 1.87 0.02 3.73 0.06 5.59 0.1v2h2v13c-2.58 0.05-5.16 0.09-7.75 0.12-0.72 0.02-1.45 0.03-2.21 0.05-3.84 0.04-6.78 0-10-2.17-0.05-1.8-0.09-3.59-0.12-5.38-0.02-1-0.05-2-0.07-3.02 0.33-4.36 1.67-4.58 5.89-4.8z" fill="#AF4AE5"/>
<path transform="translate(307,201)" d="m0 0 5 1c-0.02 1-0.02 1-0.04 2.02-0.04 4.9 0.06 9.67 0.6 14.5 0.47 4.52 0.25 8.65-0.3 13.1-0.36 3.14-0.39 6.14-0.26 9.3l1 1c0.14 2.67 0.04 5.32 0 8-1.99 0.38-3.99 0.71-6 1-1.58-1.58-1.13-3.21-1.13-5.4 0-1.34 0-1.34-0.01-2.7 0.01-0.94 0.01-1.87 0.02-2.84-0.01-0.93-0.01-1.86-0.02-2.82 0-0.9 0.01-1.79 0.01-2.7v-2.49c0.13-2.05 0.13-2.05 1.13-4.05-0.17-0.8-0.33-1.61-0.5-2.44-0.57-4.06-0.19-7.6 0.24-11.7 0.38-4.3 0.34-8.58 0.26-12.9z" fill="#B04AE5"/>
<path transform="translate(753,168)" d="m0 0h49c-1 4-1 4-2 5-1.44 0.09-2.89 0.12-4.34 0.11h-2.79c-1 0-2-0.01-3.03-0.01-1.02 0-2.04-0.01-3.09-0.01-3.27 0-6.54-0.01-9.81-0.03-2.21 0-4.43-0.01-6.64-0.01-5.43-0.01-10.9-0.03-16.3-0.05l-1-5z" fill="#0D0A0D"/>
<path transform="translate(443,194)" d="m0 0c2.94-0.08 5.87-0.14 8.81-0.19 0.84-0.02 1.67-0.05 2.53-0.07 1.2-0.02 1.2-0.02 2.43-0.03 1.11-0.03 1.11-0.03 2.24-0.05 2.53 0.43 3.22 1.54 4.99 3.34 3.63 0.25 3.63 0.25 7 0l-3 3 4 2v2c-1.05 0.06-1.05 0.06-2.12 0.11-1.36 0.1-1.36 0.1-2.76 0.2-1.35 0.09-1.35 0.09-2.74 0.18-2.74 0.3-2.74 0.3-4.38 3.51h-2v-2l-4-1v-3c-2.35-0.69-2.35-0.69-5-1l-3 2c-3.69-0.88-3.69-0.88-7-2 4.07-2.71 7.15-2.58 12-3-2.97-0.33-5.94-0.66-9-1l1-3z" fill="#B04AE3"/>
<path transform="translate(554,252)" d="m0 0c5.53-0.19 9.76 0.25 15 2 0.59 4.38 1.14 8.58 1 13-4.06 0.98-7.83 1.23-12 1l-3-2c-0.51-3.26-0.51-3.26-0.69-7.12-0.06-1.29-0.13-2.57-0.2-3.89-0.03-0.99-0.07-1.97-0.11-2.99z" fill="#AE47E3"/>
<path transform="translate(1289,270)" d="m0 0c1.38 2.76 1.1 5.05 1.06 8.12-0.01 1.1-0.02 2.2-0.02 3.33-0.02 0.84-0.03 1.68-0.04 2.55-14.8 0.37-14.8 0.37-21-2v-2h5v-2c1.62-0.19 3.25-0.38 4.88-0.56 0.9-0.11 1.8-0.21 2.74-0.32 2.38-0.12 2.38-0.12 4.38 0.88v-3c-0.74 0.02-1.48 0.04-2.25 0.06-2.75-0.06-2.75-0.06-4.62-0.53-2.31-0.57-4.53-0.84-6.9-1.07-0.89-0.08-1.77-0.17-2.69-0.26s-1.84-0.17-2.79-0.26c-0.94-0.09-1.87-0.18-2.84-0.28-2.3-0.22-4.61-0.44-6.91-0.66v-1c10.6-1.39 21.3-1.1 32-1z" fill="#27E1B5"/>
<path transform="translate(1119,209)" d="m0 0 2 3c2.33 0.51 2.33 0.51 4.94 0.56 3.71 0.18 4.86 0.31 8.06 2.44 0.29 2.82 0.29 2.82 0.19 6.12-0.03 1.1-0.06 2.2-0.08 3.33-0.04 0.84-0.07 1.68-0.11 2.55-2.12 0.05-4.25 0.09-6.38 0.12-1.18 0.03-2.36 0.05-3.58 0.08-3.04-0.2-3.04-0.2-5.04-2.2-0.23-2.09-0.23-2.09-0.19-4.5 0.01-0.79 0.02-1.59 0.02-2.41 0.17-2.09 0.17-2.09 1.17-4.09l-4-2 3-3z" fill="#6498C1"/>
<path transform="translate(231 194)" d="m0 0c1.17 0.01 2.33 0.01 3.53 0.02 1.17-0.01 2.33-0.01 3.53-0.02 2.97 0.27 2.97 0.27 4.97 2.27 0.99 1.48 0.99 1.48 2 3h2l-1 3h-2l-3 6h-4l-1-2c-0.99-0.33-1.98-0.66-3-1l-1 2h-2c-0.99 1.48-0.99 1.48-2 3l-2-1c-0.05-2.13-0.09-4.25-0.12-6.38-0.03-1.18-0.05-2.37-0.07-3.59 0.26-4.14 1.02-4.93 5.16-5.3z" fill="#B049E5"/>
<path transform="translate(810,223)" d="m0 0 2 2h-2c-0.08 1.24-0.16 2.47-0.25 3.75-0.38 2.89-0.66 4.13-2.37 6.56-3.88 2.75-7.41 4.86-12.3 4.44-2.12-0.75-2.12-0.75-3.12-1.75 0.09-1.69 0.25-3.38 0.44-5.06 0.1-0.92 0.2-1.84 0.31-2.79 0.08-0.71 0.16-1.42 0.25-2.15l7-2 1 1 1-3c2.76-1.38 4.95-1.19 8-1z" fill="#50B5B5"/>
<path transform="translate(493,202)" d="m0 0c3 3.62 3 3.62 3 7-1.29-0.01-2.59-0.02-3.92-0.04-8.82-0.05-17.5 0.07-26.3 0.88-4.04 0.23-7.79-0.23-11.8-0.84l-1 2-4-4c1.69-1.62 1.69-1.62 4-3 2.75 0.81 2.75 0.81 5 2v2h2c0.35-0.97 0.35-0.97 0.71-1.95 1.29-2.05 1.29-2.05 3.43-2.66 0.84-0.05 1.68-0.09 2.55-0.14 0.9-0.05 1.8-0.11 2.72-0.16 0.86-0.03 1.71-0.06 2.59-0.09 1.76-0.06 1.76-0.06 3.56-0.12 3.51 0.12 6.94 0.46 10.4 0.9 2.18 0.27 2.18 0.27 5.02 0.22l2-2z" fill="#AF46E4"/>
<path transform="translate(748 287)" d="m0 0c1.22 0.03 1.22 0.03 2.46 0.07 1.23 0.03 1.23 0.03 2.48 0.05 0.94 0.04 0.94 0.04 1.9 0.08v5h5c1.31 3.93 0.24 6.12-1 10l-13-1v-2h-2c-0.06-1.63-0.1-3.25-0.13-4.88-0.02-0.9-0.05-1.81-0.07-2.74 0.26-3.2 1.11-4.29 4.36-4.58z" fill="#9067DC"/>
<path transform="translate(560 209)" d="m0 0c1 0.02 2 0.05 3.02 0.07 1.51 0.03 1.51 0.03 3.04 0.05 0.77 0.03 1.54 0.05 2.34 0.08 2.12 3.81 2.24 6.62 2 11l-1 3c-6.44 0.49-6.44 0.49-13 1-0.98-2.95-1.17-5-1.19-8.07-0.01-0.88-0.03-1.75-0.04-2.66 0.35-3.45 1.43-4.21 4.83-4.47z" fill="#AF4BE5"/>
<path transform="translate(1119,247)" d="m0 0h2v9l1-8c1.62 1 1.62 1 3 3-0.35 2.82-1.15 5.27-2 8 0.78 0.27 1.57 0.54 2.38 0.81 2.62 1.19 2.62 1.19 4.62 4.19l2-11h1v17c-1.94 0.02-3.88 0.04-5.88 0.06-1.09 0.01-2.18 0.03-3.3 0.04-2.82-0.1-2.82-0.1-4.82-1.1v-22z" fill="#4CBAB4"/>
<path transform="translate(395,237)" d="m0 0 5 1c-0.14 0.9-0.14 0.9-0.29 1.83-0.17 1.2-0.17 1.2-0.33 2.42-0.12 0.79-0.24 1.58-0.36 2.39-0.02 2.71 0.64 4.04 1.98 6.36 0.37 1.32 0.71 2.66 1 4-0.62 0.39-1.24 0.78-1.88 1.19-2.44 2.09-3.14 3.78-4.12 6.81l2 1-2 2 1 2-5-1-1-5h1c0.05-1.13 0.1-2.27 0.15-3.44 0.07-1.52 0.15-3.04 0.23-4.56 0.04-1.12 0.04-1.12 0.09-2.25 0.27-5.16 1.14-9.78 2.53-14.8z" fill="#AE4BE2"/>
<path transform="translate(402,194)" d="m0 0 8 2v71h-2c0.02-0.91 0.04-1.81 0.06-2.75 0.07-3.05 0.07-3.05-0.56-5.11-0.61-2.62-0.61-5.01-0.6-7.7 0.01-1.12 0.01-2.23 0.01-3.38 0.01-1.2 0.02-2.4 0.03-3.63 0-1.23 0.01-2.47 0.01-3.74 0.01-3.94 0.03-7.88 0.05-11.8 0.03-5.2 0.05-10.4 0.06-15.6 0.01-1.8 0.01-1.8 0.03-3.64 0-1.11 0-2.21 0.01-3.36 0-0.97 0.01-1.95 0.01-2.96 0.05-2.36 0.05-2.36-1.11-4.34h-4l1-3-1-2z" fill="#AF4AE4"/>
<path transform="translate(865,267)" d="m0 0h2c0.19 1.96 0.38 3.92 0.56 5.88 0.11 1.09 0.21 2.18 0.32 3.3 0.12 2.82 0.12 2.82-0.88 4.82 0.6-0.02 1.2-0.05 1.82-0.07 11.1-0.22 22.1 1.01 33.2 2.07v2c-5.11 0.02-10.2 0.04-15.3 0.05-1.74 0.01-3.47 0.02-5.21 0.03-2.5 0.01-4.99 0.01-7.49 0.02-0.78 0-1.56 0.01-2.37 0.01-1.87 0-3.73-0.05-5.6-0.11-1-1-1-1-1.1-4.82 0.01-1.58 0.02-3.16 0.04-4.74 0-0.81 0.01-1.62 0.01-2.45 0.01-1.99 0.03-3.99 0.05-5.99z" fill="#8C6CDC"/>
<path transform="translate(333,195)" d="m0 0 4 2c-0.32 0.71-0.65 1.43-0.98 2.17-1.05 2.92-1.29 5.08-1.34 8.17-0.02 1.04-0.04 2.08-0.06 3.15-0.01 1.12-0.02 2.23-0.03 3.37-0.02 1.15-0.04 2.3-0.06 3.48-0.06 3.66-0.11 7.31-0.15 11-0.04 2.48-0.08 4.97-0.12 7.45-0.1 6.08-0.18 12.2-0.26 18.2h-2c-0.02-7.4-0.04-14.8-0.05-22.2-0.01-3.44-0.01-6.87-0.03-10.3-0.01-3.94-0.01-7.89-0.02-11.8 0-1.23-0.01-2.47-0.01-3.74v-3.46c-0.01-1.01-0.01-2.02-0.01-3.06 0.12-2.4 0.12-2.4 1.12-4.4z" fill="#AA4BE2"/>
<path transform="translate(497,196)" d="m0 0c1.42 4.14 0.75 7.75 0 12-2.51-1.26-2.87-2.5-4-5l-3 3c-2.97-0.99-5.94-1.98-9-3l2-2h3l-1-3 2-2v-1c6.62-1.25 6.62-1.25 10 1z" fill="#AF4BE5"/>
<path transform="translate(238,257)" d="m0 0 1 2c0.9 0.37 0.9 0.37 1.81 0.75 3.07 1.75 4.31 4.31 6.19 7.25-3.12 0.06-6.25 0.09-9.38 0.12-0.88 0.02-1.77 0.04-2.69 0.06-0.85 0-1.7 0.01-2.58 0.02-1.18 0.01-1.18 0.01-2.38 0.03-1.97-0.23-1.97-0.23-3.97-2.23-0.12-3.12-0.12-3.12 0-6h2v5c4.1-0.71 4.1-0.71 8-2 1.6-2.48 1.6-2.48 2-5z" fill="#B046E4"/>
<path transform="translate(511,217)" d="m0 0c0.99 0.33 1.98 0.66 3 1 0.02 4.95 0.04 9.9 0.05 14.8 0.01 1.69 0.02 3.37 0.03 5.06 0.01 2.41 0.01 4.83 0.02 7.25 0 0.75 0.01 1.51 0.01 2.29 0 5.33 0 5.33-1.11 7.56h-2v-38z" fill="#AF47E4"/>
<path transform="translate(754,217)" d="m0 0c1.67-0.04 3.33-0.04 5 0 1 1 1 1 1.02 3.04-0.05 0.88-0.09 1.75-0.14 2.65-0.05 0.95-0.1 1.89-0.15 2.86-0.05 1-0.11 1.99-0.17 3.01-0.05 1-0.1 2-0.16 3.02-0.13 2.48-0.26 4.95-0.4 7.42-2.48-0.99-2.48-0.99-5-2v-20z" fill="#0C090C"/>
<path transform="translate(1127,213)" d="m0 0c4.75 0.88 4.75 0.88 7 2v12c-2.12 0.05-4.25 0.09-6.38 0.12-1.77 0.04-1.77 0.04-3.58 0.08-3.04-0.2-3.04-0.2-5.04-2.2l4-5c2.97 0.5 2.97 0.5 6 1l1 5c1.11-3.34 1.01-5.63 0-9-1.47-2.26-1.47-2.26-3-4z" fill="#4CBBB4"/>
<path transform="translate(299,188)" d="m0 0c0.5 0.99 0.5 0.99 1 2 0.99 0.33 1.98 0.66 3 1 0.69 2.06 0.69 2.06 1 4l-2 1v-2h-36c8.45-5.63 23.1-3.09 33-3v-3z" fill="#B046E5"/>
<path transform="translate(775,208)" d="m0 0c1.88 0.06 1.88 0.06 4 1 1.02 1.99 2.02 3.99 3 6 1.32 0.7 2.65 1.37 4 2 0.75 2.12 0.75 2.12 1 4-1.98 0.33-3.96 0.66-6 1-0.39-0.76-0.78-1.53-1.19-2.31-1.98-2.94-3.7-4.09-6.81-5.69 0.88-4.88 0.88-4.88 2-6z" fill="#080709"/>
<path transform="translate(892,204)" d="m0 0c0.99 0.33 1.98 0.66 3 1v11h2v3h-2l-1 4v-2h-2c-0.59-1.89-1.14-3.79-1.69-5.69-0.31-1.05-0.62-2.11-0.95-3.2-0.44-3.77 0.4-5.13 2.64-8.11z" fill="#8C6BDE"/>
<path transform="translate(428,220)" d="m0 0c1.74 3.26 2.2 5.28 2.06 9-0.08 3.92 0.07 7.67 0.5 11.6 0.78 8.16 0.03 16.3-0.56 24.4l-2-1c-0.17-4.5-0.33-9-0.48-13.5-0.06-1.53-0.11-3.06-0.17-4.58-0.33-8.73-0.48-17.2 0.65-25.9z" fill="#A750DE"/>
<path transform="translate(780,174)" d="m0 0c2.77-0.08 5.54-0.14 8.31-0.19 0.79-0.02 1.57-0.05 2.38-0.07 0.76-0.01 1.52-0.02 2.3-0.03 1.04-0.03 1.04-0.03 2.11-0.05 2.44 0.44 3.33 1.47 4.9 3.34h-2l-1 2c-11.5 0.55-11.5 0.55-17-3v-2z" fill="#7DD79A"/>
<path transform="translate(334,202)" d="m0 0h1v63l-1-4h-2v-7h2v-52z" fill="#B046E5"/>
<path transform="translate(553,232)" d="m0 0h1c0.19 2.96 0.38 5.92 0.56 8.88 0.06 0.84 0.11 1.68 0.17 2.55 0.05 0.8 0.1 1.61 0.15 2.44 0.05 0.74 0.09 1.48 0.14 2.25-0.02 1.88-0.02 1.88-1.02 3.88h-11l4-2 3-2c0.51-3.28 0.51-3.28 0.56-7 0.23-6.79 0.23-6.79 2.44-9z" fill="#B046E5"/>
<path transform="translate(801,288)" d="m0 0c1.25 2.5 1.13 4.27 1.12 7.06 0.01 0.9 0.01 1.8 0.01 2.73-0.13 2.21-0.13 2.21-1.13 3.21-1.67 0.04-3.33 0.04-5 0l-1-2 2-1v-5c-0.99-0.33-1.98-0.66-3-1 0.31-1.94 0.31-1.94 1-4 3-1 3-1 6 0z" fill="#8C6CDA"/>
<path transform="translate(343,262)" d="m0 0c2.51 0.95 3.97 1.97 5.81 3.94 1.83 4.71 0.91 9.14 0.19 14.1l-2-1c-0.41-2.29-0.41-2.29-0.62-5.06-0.08-0.92-0.15-1.84-0.23-2.79-0.05-0.71-0.1-1.42-0.15-2.15l-8-1 1-4h4v-2z" fill="#AE48E3"/>
<path transform="translate(513,271)" d="m0 0h1v9c3.27-0.11 6.54-0.24 9.81-0.38 0.93-0.03 1.86-0.06 2.82-0.09 0.89-0.04 1.78-0.08 2.7-0.12 1.24-0.04 1.24-0.04 2.49-0.09 2.47-0.2 2.47-0.2 5.18-2.32h4l-1 5c-4.31 0.03-8.62 0.05-12.9 0.06-1.23 0.01-2.46 0.02-3.73 0.03-1.17 0-2.34 0-3.54 0.01-1.63 0.01-1.63 0.01-3.29 0.01-2.5-0.11-2.5-0.11-3.5-1.11-0.07-1.69-0.08-3.38-0.06-5.06 0.01-0.92 0.02-1.84 0.02-2.79 0.02-0.71 0.03-1.42 0.04-2.15z" fill="#AF46E4"/>
<path transform="translate(259,202)" d="m0 0 2 1-1 25h-2c-0.84-5.12-1.18-10.1-1.19-15.2-0.01-0.71-0.02-1.41-0.03-2.14-0.02-3.76 0.08-5.4 2.22-8.61z" fill="#AD4BE2"/>
<path transform="translate(585,201)" d="m0 0c2 1.19 2 1.19 4 3v5h-16l-1-2c0.85-0.35 1.71-0.7 2.59-1.06 1.1-0.45 2.21-0.91 3.35-1.38 1.1-0.45 2.2-0.9 3.34-1.37 2.59-0.93 2.59-0.93 3.72-2.19z" fill="#B046E5"/>
<path transform="translate(1593,409)" d="m0 0c0.99 0.33 1.98 0.66 3 1 1.63 3.48 2.4 6.85 1.12 10.5-0.37 0.5-0.74 0.99-1.12 1.5-1.94-0.31-1.94-0.31-4-1-1.28-3.85-1.07-6.95-1-11l2-1z" fill="#0D0A0D"/>
<path transform="translate(513,194)" d="m0 0c2.34 0.29 4.67 0.62 7 1v7h-2l-1 2c-2-1-2-1-3-4l-2 4c-0.03-1.48-0.05-2.96-0.06-4.44-0.01-0.82-0.03-1.64-0.04-2.49 0.1-2.07 0.1-2.07 1.1-3.07z" fill="#AE4BE2"/>
<path transform="translate(402,194)" d="m0 0 8 2c0.1 7.75 0.06 15.3-1 23h-1c-0.06-1.28-0.12-2.55-0.18-3.87-0.09-1.67-0.17-3.34-0.26-5.01-0.04-0.84-0.08-1.68-0.12-2.55-0.04-0.8-0.08-1.61-0.12-2.44-0.04-0.74-0.08-1.48-0.11-2.25-0.11-1.97-0.11-1.97-1.21-3.88h-4l1-3-1-2z" fill="#B04BE6"/>
<path transform="translate(532,194)" d="m0 0 1 3c-4.46 0.5-4.46 0.5-9 1l2 4c-0.99 0.33-1.98 0.66-3 1-3-2-3-2-3.75-4-0.25-2-0.25-2 0.75-4 4.03-0.94 7.87-1.1 12-1z" fill="#B049E4"/>
<path transform="translate(545,223)" d="m0 0h8l1 4c-3.54 2.27-5.71 1.99-9.75 1.12-0.98-0.2-1.97-0.4-2.98-0.61-0.75-0.17-1.5-0.34-2.27-0.51l1-3 5 1v-2z" fill="#AF49E5"/>
<path transform="translate(561 209)" d="m0 0c1.67 0.06 1.67 0.06 3.38 0.12v3c-1.99 0.34-3.97 0.66-6 1v9c-1-0.33-1.99-0.65-3-1-0.06-1.62-0.1-3.24-0.13-4.87-0.02-0.9-0.05-1.81-0.07-2.74 0.34-4.19 1.81-4.37 5.82-4.51z" fill="#B046E5"/>
<path transform="translate(573,272)" d="m0 0 8 1 1 3-1 2c-2.07 0.63-2.07 0.63-4.56 1.12-0.83 0.17-1.66 0.34-2.51 0.51-0.63 0.12-1.27 0.25-1.93 0.37-0.12-5.75-0.12-5.75 1-8z" fill="#B04AE3"/>
<path transform="translate(605,267)" d="m0 0h15v3c-5.02 0.78-8.98 1.13-14 0v6h-1c-1.12-5.62-1.12-5.62 0-9z" fill="#AF48E3"/>
<path transform="translate(786,217)" d="m0 0h6v5h2l-1 3h-8v-4h2l-1-4z" fill="#4CBAB4"/>
<path transform="translate(511,259)" d="m0 0c3 3 3 3 3.33 4.91-0.03 0.71-0.05 1.42-0.08 2.15-0.03 0.79-0.05 1.57-0.08 2.38-0.28 4.2-0.68 8.38-1.17 12.6l-2-1v-21z" fill="#AE48E3"/>
<path transform="translate(433,220)" d="m0 0h1v10l5-1 1 4c-0.8 0.56-1.61 1.11-2.44 1.69-2.8 2.53-3.25 3.64-3.56 7.31-2.32-3.48-1.92-4.63-1.29-8.59 0.54-4.45 0.36-8.93 0.29-13.4z" fill="#B04AE5"/>
<path transform="translate(236,209)" d="m0 0 4 1v8h-7c-0.26-3.15-0.25-4.62 1.5-7.31 0.5-0.56 0.99-1.12 1.5-1.69z" fill="#B04AE5"/>
<path transform="translate(753,262)" d="m0 0h3l-1 10-4 1c-1.26-3.79-0.4-5.34 1-9l1-2z" fill="#0D0A0D"/>
<path transform="translate(770 216)" d="m0 0c1.21 0.03 1.21 0.03 2.44 0.06 0.99 2.31 1.98 4.62 3 7-4.46-0.99-4.46-0.99-9-2 0-4.97 0-4.97 3.56-5.06z" fill="#0D0A0D"/>
<path transform="translate(816,209)" d="m0 0v6c-2.88 0.62-2.88 0.62-6 1l-2-2v-3c3.09-1.76 4.23-2 8-2z" fill="#49B2AC"/>
<path transform="translate(781,296)" d="m0 0h5l2 5c-1 1-1 1-4.56 1.06-1.14-0.02-2.27-0.04-3.44-0.06v-2c-0.99-0.33-1.98-0.66-3-1h3l1-3z" fill="#8C6CDB"/>
<path transform="translate(1022,226)" d="m0 0h2v2h2l1 5-4 3c-2.29-3.44-2.26-4.97-2-9l1-1z" fill="#0D0A0D"/>
<path transform="translate(940,258)" d="m0 0h1l1 6c0.64 0.1 1.28 0.21 1.94 0.31 0.68 0.23 1.36 0.46 2.06 0.69l1 3h-3l-1 2-4-1c-0.14-7.43-0.14-7.43 1-11z" fill="#6893C4"/>
<path transform="translate(780,214)" d="m0 0c3.06 1.19 3.06 1.19 6 3 0.88 2.19 0.88 2.19 1 4-1.98 0.33-3.96 0.66-6 1-3-4.75-3-4.75-3-7l2-1z" fill="#000002"/>
<path transform="translate(537,203)" d="m0 0c2 1 2 1 2.62 2.73 0.43 2.55 0.48 4.94 0.44 7.52-0.01 0.89-0.02 1.78-0.02 2.7-0.02 0.68-0.03 1.35-0.04 2.05-0.99-0.33-1.98-0.66-3-1-0.39-1.77-0.76-3.54-1.12-5.31-0.21-0.99-0.42-1.97-0.64-2.99-0.24-2.7-0.24-2.7 1.76-5.7z" fill="#B046E5"/>
<path transform="translate(511,196)" d="m0 0h3v17c-2.57-2.57-2.98-3.37-3.1-7.04 0.01-1.18 0.03-2.37 0.04-3.58 0.01-1.19 0.02-2.38 0.02-3.61 0.02-0.91 0.03-1.83 0.04-2.77z" fill="#B046E5"/>
<path transform="translate(427,268)" d="m0 0v13c-0.99-0.33-1.98-0.66-3-1v-11c2-1 2-1 3-1z" fill="#AE47E3"/>
<path transform="translate(253,210)" d="m0 0h2v12h2v4h-2v10h-1c-0.89-8.69-1.12-17.3-1-26z" fill="#B049E3"/>
<path transform="translate(231 194)" d="m0 0c1.45 0.03 1.45 0.03 2.94 0.06l1 4c-6.75 2.13-6.75 2.13-9 1 1.12-4.98 1.12-4.98 5.06-5.06z" fill="#B046E5"/>
<path transform="translate(688,194)" d="m0 0 3 2c0.34 2.06 0.34 2.06 0.29 4.57-0.01 0.9-0.02 1.79-0.03 2.72-0.02 0.93-0.05 1.87-0.07 2.83-0.02 0.95-0.03 1.89-0.04 2.87-0.04 2.34-0.09 4.67-0.15 7.01h-1l-1-19c-0.99-0.33-1.98-0.66-3-1l2-2z" fill="#8C6BDF"/>
<path transform="translate(566,214)" d="m0 0c2.29 3.44 2.18 4.99 2 9-4.46 0.5-4.46 0.5-9 1l1-3h5c-0.02-0.97-0.04-1.94-0.06-2.94 0.06-3.06 0.06-3.06 1.06-4.06z" fill="#AF46E4"/>
<path transform="translate(756,209)" d="m0 0 2 7-4 1c-1.21-2.33-2.17-4.5-3-7 3-1 3-1 5-1z" fill="#74D59D"/>
<path transform="translate(748,290)" d="m0 0c2.48 0.99 2.48 0.99 5 2-0.57 2.87-0.86 3.86-3 6h-3l1-8z" fill="#8C70D0"/>
<path transform="translate(583,267)" d="m0 0c4.88 0.88 4.88 0.88 6 2 0.07 1.52 0.08 3.04 0.06 4.56-0.01 0.83-0.02 1.66-0.02 2.51-0.02 0.95-0.02 0.95-0.04 1.93-1.49-1.3-1.49-1.3-3-3-0.19-3.19-0.19-3.19 0-6h-3v-2z" fill="#AF4AE5"/>
<path transform="translate(758,198)" d="m0 0h2c1.21 4.94 0.63 8.21-1 13h-1c-1.29-8.43-1.29-8.43 0-13z" fill="#6FD69F"/>
<path transform="translate(798,293)" d="m0 0v5l-4 1-1-3-3-2c4.62-2.12 4.62-2.12 8-1z" fill="#8C6ED4"/>
<path transform="translate(868,275)" d="m0 0c2.48 0.99 2.48 0.99 5 2v4c-3.75 1.12-3.75 1.12-6 0l1-6z" fill="#8C6FD1"/>
<path transform="translate(511,217)" d="m0 0c0.99 0.33 1.98 0.66 3 1 0.03 1.46 0.05 2.92 0.06 4.38 0.01 0.81 0.03 1.62 0.04 2.46-0.1 2.16-0.1 2.16-1.1 4.16h-2v-12z" fill="#AE47E3"/>
<path transform="translate(809,231)" d="m0 0c2.97 0.5 2.97 0.5 6 1l-2 6c-2.48-0.99-2.48-0.99-5-2l1-5z" fill="#0D0A0D"/>
<path transform="translate(347,268)" d="m0 0c0.99 0.33 1.98 0.66 3 1l-1 11-2-1v-11z" fill="#B046E4"/>
<path transform="translate(259,202)" d="m0 0 2 1v10c-0.99 0.5-0.99 0.5-2 1-2-2-2-2-2.25-5.44 0.25-3.56 0.25-3.56 2.25-6.56z" fill="#AA4EE0"/>
<path transform="translate(559,258)" d="m0 0 5 1v3l-5 2c-1.12-3.75-1.12-3.75 0-6z" fill="#B04BE6"/>
<path transform="translate(1111,258)" d="m0 0c2.12 0.38 2.12 0.38 4 1v5c-0.99 0.33-1.98 0.66-3 1-0.99-1.65-1.98-3.3-3-5l2-2z" fill="#0D0A0D"/>
<path transform="translate(680,218)" d="m0 0 5 1v3c-2.31 0.33-4.62 0.66-7 1l-2-4 4 1v-2z" fill="#8D69DE"/>
<path transform="translate(252,210)" d="m0 0 2 1v13h-3l1-14z" fill="#B04BE6"/>
<path transform="translate(247,180)" d="m0 0h2l1 3h-3l1 8c-0.99-0.33-1.98-0.66-3-1-0.2-6.05-0.2-6.05 0-8l2-2z" fill="#B047E5"/>
</svg>
