<svg xmlns="http://www.w3.org/2000/svg" xmlns:xlink="http://www.w3.org/1999/xlink" width="500" zoomAndPan="magnify" viewBox="0 0 375 112.499997" height="150" preserveAspectRatio="xMidYMid meet" version="1.0"><defs><g/></defs><g fill="#f7fcff" fill-opacity="1"><g transform="translate(17.367521, 81.190797)"><g><path d="M 18.484375 0.0625 C 16.816406 0.375 15.875 0.53125 15.65625 0.53125 C 11.09375 0.53125 7.625 -0.769531 5.25 -3.375 C 2.882812 -5.988281 1.703125 -9.820312 1.703125 -14.875 L 1.703125 -42.171875 C 1.703125 -47.046875 2.894531 -50.742188 5.28125 -53.265625 C 7.675781 -55.785156 11.132812 -57.046875 15.65625 -57.046875 C 20.175781 -57.046875 23.628906 -55.785156 26.015625 -53.265625 C 28.410156 -50.742188 29.609375 -47.046875 29.609375 -42.171875 L 29.609375 -14.875 C 29.609375 -10.21875 28.554688 -6.53125 26.453125 -3.8125 L 31.3125 -0.71875 L 27.5 5.984375 Z M 15.65625 -9.875 C 16.75 -9.875 17.445312 -10.398438 17.75 -11.453125 C 18.0625 -12.503906 18.21875 -13.863281 18.21875 -15.53125 L 18.21875 -41.984375 C 18.21875 -43.429688 18.03125 -44.570312 17.65625 -45.40625 C 17.289062 -46.238281 16.601562 -46.65625 15.59375 -46.65625 C 13.789062 -46.65625 12.890625 -45.117188 12.890625 -42.046875 L 12.890625 -15.328125 C 12.890625 -13.753906 13.066406 -12.453125 13.421875 -11.421875 C 13.773438 -10.390625 14.519531 -9.875 15.65625 -9.875 Z M 15.65625 -9.875 "/></g></g></g><g fill="#f7fcff" fill-opacity="1"><g transform="translate(49.866627, 81.190797)"><g><path d="M 11.578125 0.53125 C 7.984375 0.53125 5.515625 -0.539062 4.171875 -2.6875 C 2.835938 -4.84375 2.171875 -8.046875 2.171875 -12.296875 L 2.171875 -48.15625 L 13.75 -48.15625 L 13.75 -14.609375 C 13.75 -14.296875 13.75 -13.46875 13.75 -12.125 C 13.75 -10.789062 13.957031 -9.847656 14.375 -9.296875 C 14.789062 -8.753906 15.4375 -8.484375 16.3125 -8.484375 C 17.5 -8.484375 18.242188 -8.976562 18.546875 -9.96875 C 18.859375 -10.957031 19.015625 -12.375 19.015625 -14.21875 L 19.015625 -14.609375 L 19.078125 -48.15625 L 30.53125 -48.15625 L 30.53125 0 L 19.015625 0 L 19.015625 -5.125 C 18.222656 -3.113281 17.300781 -1.664062 16.25 -0.78125 C 15.195312 0.09375 13.640625 0.53125 11.578125 0.53125 Z M 11.578125 0.53125 "/></g></g></g><g fill="#f7fcff" fill-opacity="1"><g transform="translate(82.694677, 81.190797)"><g><path d="M 15.796875 0.53125 C 10.835938 0.53125 7.28125 -0.828125 5.125 -3.546875 C 2.976562 -6.265625 1.90625 -10.320312 1.90625 -15.71875 L 1.90625 -35.0625 C 1.90625 -39.5 3.175781 -42.878906 5.71875 -45.203125 C 8.269531 -47.523438 11.828125 -48.6875 16.390625 -48.6875 C 25.640625 -48.6875 30.265625 -44.144531 30.265625 -35.0625 L 30.265625 -31.578125 C 30.265625 -28.066406 30.222656 -25.21875 30.140625 -23.03125 L 13.421875 -23.03125 L 13.421875 -13.6875 C 13.421875 -12.019531 13.59375 -10.710938 13.9375 -9.765625 C 14.289062 -8.828125 15.039062 -8.359375 16.1875 -8.359375 C 17.0625 -8.359375 17.6875 -8.617188 18.0625 -9.140625 C 18.4375 -9.671875 18.65625 -10.273438 18.71875 -10.953125 C 18.78125 -11.628906 18.8125 -12.628906 18.8125 -13.953125 L 18.8125 -18.625 L 30.265625 -18.625 L 30.265625 -15.859375 C 30.265625 -10.242188 29.175781 -6.109375 27 -3.453125 C 24.832031 -0.796875 21.097656 0.53125 15.796875 0.53125 Z M 18.8125 -28.75 L 18.8125 -34.9375 C 18.8125 -38.40625 17.957031 -40.140625 16.25 -40.140625 C 14.320312 -40.140625 13.359375 -38.40625 13.359375 -34.9375 L 13.359375 -28.75 Z M 18.8125 -28.75 "/></g></g></g><g fill="#f7fcff" fill-opacity="1"><g transform="translate(114.799069, 81.190797)"><g><path d="M 2.296875 0 L 2.296875 -56.84375 L 13.6875 -56.84375 L 13.6875 -31.578125 L 19.21875 -48.15625 L 31.125 -48.15625 L 23.890625 -27.234375 L 33.09375 0 L 20.859375 0 L 13.6875 -22.703125 L 13.6875 0 Z M 2.296875 0 "/></g></g></g><g fill="#f7fcff" fill-opacity="1"><g transform="translate(147.100811, 81.190797)"><g><path d="M 0.921875 0 L 0.921875 -7.046875 L 12.890625 -39.078125 L 1.453125 -39.078125 L 1.453125 -48.15625 L 24.8125 -48.15625 L 24.8125 -40.328125 L 13.484375 -8.625 L 24.9375 -8.625 L 24.9375 0 Z M 0.921875 0 "/></g></g></g><g fill="#f7fcff" fill-opacity="1"><g transform="translate(172.494859, 81.190797)"><g/></g></g><g fill="#f7fcff" fill-opacity="1"><g transform="translate(187.889172, 81.190797)"><g><path d="M 2.5 -56.515625 L 17.828125 -56.515625 C 21.953125 -56.515625 24.945312 -55.503906 26.8125 -53.484375 C 28.675781 -51.472656 29.609375 -48.1875 29.609375 -43.625 L 29.609375 -41.125 C 29.609375 -35.726562 27.675781 -32.503906 23.8125 -31.453125 C 26.1875 -30.835938 27.851562 -29.410156 28.8125 -27.171875 C 29.78125 -24.929688 30.265625 -21.972656 30.265625 -18.296875 C 30.265625 -12.285156 29.363281 -7.734375 27.5625 -4.640625 C 25.769531 -1.546875 22.523438 0 17.828125 0 L 2.5 0 Z M 15.859375 -35.265625 C 16.816406 -35.265625 17.472656 -35.625 17.828125 -36.34375 C 18.179688 -37.070312 18.359375 -38.09375 18.359375 -39.40625 L 18.359375 -45.078125 C 18.359375 -46.910156 17.546875 -47.828125 15.921875 -47.828125 L 13.546875 -47.828125 L 13.546875 -35.265625 Z M 14.671875 -9.9375 C 17.609375 -9.9375 19.078125 -11.335938 19.078125 -14.140625 L 19.078125 -21.1875 C 19.078125 -22.894531 18.820312 -24.1875 18.3125 -25.0625 C 17.8125 -25.945312 16.925781 -26.390625 15.65625 -26.390625 L 13.546875 -26.390625 L 13.546875 -10 Z M 14.671875 -9.9375 "/></g></g></g><g fill="#f7fcff" fill-opacity="1"><g transform="translate(219.401473, 81.190797)"><g><path d="M 11.046875 0.53125 C 7.328125 0.53125 4.773438 -0.707031 3.390625 -3.1875 C 2.003906 -5.664062 1.3125 -9.207031 1.3125 -13.8125 C 1.3125 -17.582031 1.804688 -20.476562 2.796875 -22.5 C 3.785156 -24.519531 5.15625 -26 6.90625 -26.9375 C 8.664062 -27.882812 11.34375 -28.925781 14.9375 -30.0625 L 18.09375 -31.125 L 18.09375 -36.0625 C 18.09375 -37.332031 17.835938 -38.304688 17.328125 -38.984375 C 16.828125 -39.660156 16.226562 -40 15.53125 -40 C 14.914062 -40 14.375 -39.710938 13.90625 -39.140625 C 13.445312 -38.578125 13.21875 -37.8125 13.21875 -36.84375 L 13.21875 -33.953125 L 2.046875 -33.953125 L 2.046875 -35.53125 C 2.046875 -40.269531 3.148438 -43.644531 5.359375 -45.65625 C 7.578125 -47.675781 11.1875 -48.6875 16.1875 -48.6875 C 20.175781 -48.6875 23.421875 -47.644531 25.921875 -45.5625 C 28.421875 -43.476562 29.671875 -40.53125 29.671875 -36.71875 L 29.671875 0 L 18.21875 0 L 18.21875 -5.71875 C 17.65625 -3.75 16.75 -2.210938 15.5 -1.109375 C 14.25 -0.015625 12.765625 0.53125 11.046875 0.53125 Z M 15.59375 -8.421875 C 16.46875 -8.421875 17.09375 -8.78125 17.46875 -9.5 C 17.84375 -10.226562 18.03125 -11.117188 18.03125 -12.171875 L 18.03125 -25.59375 C 16.320312 -24.9375 15.0625 -24.101562 14.25 -23.09375 C 13.4375 -22.082031 13.03125 -20.679688 13.03125 -18.890625 L 13.03125 -12.703125 C 13.03125 -9.847656 13.882812 -8.421875 15.59375 -8.421875 Z M 15.59375 -8.421875 "/></g></g></g><g fill="#f7fcff" fill-opacity="1"><g transform="translate(251.176921, 81.190797)"><g><path d="M 20.921875 0.53125 C 17.765625 0.53125 15.503906 -1.351562 14.140625 -5.125 L 14.140625 0 L 2.296875 0 L 2.296875 -56.84375 L 14.140625 -56.84375 L 14.140625 -45.859375 C 15.984375 -47.742188 18.132812 -48.6875 20.59375 -48.6875 C 24.320312 -48.6875 27 -47.578125 28.625 -45.359375 C 30.25 -43.148438 31.0625 -39.960938 31.0625 -35.796875 L 31.0625 -12.5625 C 31.0625 -8.613281 30.226562 -5.441406 28.5625 -3.046875 C 26.894531 -0.660156 24.347656 0.53125 20.921875 0.53125 Z M 17.046875 -8.421875 C 17.828125 -8.421875 18.382812 -8.671875 18.71875 -9.171875 C 19.050781 -9.679688 19.25 -10.316406 19.3125 -11.078125 C 19.375 -11.847656 19.40625 -13.046875 19.40625 -14.671875 L 19.40625 -34.734375 C 19.40625 -36.453125 19.25 -37.726562 18.9375 -38.5625 C 18.632812 -39.394531 17.976562 -39.8125 16.96875 -39.8125 C 15.875 -39.8125 15.128906 -39.394531 14.734375 -38.5625 C 14.335938 -37.726562 14.140625 -36.5 14.140625 -34.875 L 14.140625 -14.671875 C 14.140625 -12.566406 14.316406 -11 14.671875 -9.96875 C 15.023438 -8.9375 15.816406 -8.421875 17.046875 -8.421875 Z M 17.046875 -8.421875 "/></g></g></g><g fill="#f7fcff" fill-opacity="1"><g transform="translate(284.136566, 81.190797)"><g><path d="M 2.234375 -51.390625 L 2.234375 -59.421875 L 13.75 -59.421875 L 13.75 -51.390625 Z M 2.234375 0 L 2.234375 -48.15625 L 13.75 -48.15625 L 13.75 0 Z M 2.234375 0 "/></g></g></g><g fill="#f7fcff" fill-opacity="1"><g transform="translate(300.122986, 81.190797)"><g><path d="M 15.796875 0.53125 C 10.835938 0.53125 7.28125 -0.828125 5.125 -3.546875 C 2.976562 -6.265625 1.90625 -10.320312 1.90625 -15.71875 L 1.90625 -35.0625 C 1.90625 -39.5 3.175781 -42.878906 5.71875 -45.203125 C 8.269531 -47.523438 11.828125 -48.6875 16.390625 -48.6875 C 25.640625 -48.6875 30.265625 -44.144531 30.265625 -35.0625 L 30.265625 -31.578125 C 30.265625 -28.066406 30.222656 -25.21875 30.140625 -23.03125 L 13.421875 -23.03125 L 13.421875 -13.6875 C 13.421875 -12.019531 13.59375 -10.710938 13.9375 -9.765625 C 14.289062 -8.828125 15.039062 -8.359375 16.1875 -8.359375 C 17.0625 -8.359375 17.6875 -8.617188 18.0625 -9.140625 C 18.4375 -9.671875 18.65625 -10.273438 18.71875 -10.953125 C 18.78125 -11.628906 18.8125 -12.628906 18.8125 -13.953125 L 18.8125 -18.625 L 30.265625 -18.625 L 30.265625 -15.859375 C 30.265625 -10.242188 29.175781 -6.109375 27 -3.453125 C 24.832031 -0.796875 21.097656 0.53125 15.796875 0.53125 Z M 18.8125 -28.75 L 18.8125 -34.9375 C 18.8125 -38.40625 17.957031 -40.140625 16.25 -40.140625 C 14.320312 -40.140625 13.359375 -38.40625 13.359375 -34.9375 L 13.359375 -28.75 Z M 18.8125 -28.75 "/></g></g></g><g fill="#f7fcff" fill-opacity="1"><g transform="translate(332.227364, 81.190797)"><g><path d="M 0.921875 0 L 0.921875 -7.046875 L 12.890625 -39.078125 L 1.453125 -39.078125 L 1.453125 -48.15625 L 24.8125 -48.15625 L 24.8125 -40.328125 L 13.484375 -8.625 L 24.9375 -8.625 L 24.9375 0 Z M 0.921875 0 "/></g></g></g></svg>